<svg xmlns="http://www.w3.org/2000/svg" xmlns:xlink="http://www.w3.org/1999/xlink" xmlns:lucid="lucid" width="1740" height="983.2"><g transform="translate(-140 -360)" lucid:page-tab-id="0_0"><path d="M0 0h1870.4v1323.2H0z" fill="#fff"/><path d="M1060 420c0 22.1-17.9 40-40 40s-40-17.9-40-40 17.9-40 40-40 40 17.9 40 40z" stroke="#000" stroke-width="2" fill="#fff"/><use xlink:href="#a" transform="matrix(1,0,0,1,985,385) translate(30 38.4625)"/><path d="M1000.37 457v70.5H900v53" stroke="#000" stroke-width="2" fill="none"/><path d="M1000.37 456l1 .47v.56h-2v-1.65z"/><path d="M900 595.76l-4.64-14.26h9.28z" stroke="#000" stroke-width="2"/><path d="M940 640c0 22.1-17.9 40-40 40s-40-17.9-40-40 17.9-40 40-40 40 17.9 40 40z" stroke="#000" stroke-width="2" fill="#fff"/><use xlink:href="#b" transform="matrix(1,0,0,1,865,605) translate(30 38.4625)"/><path d="M1042.87 454.98v71.5H1300v54.02" stroke="#000" stroke-width="2" fill="none"/><path d="M1043.87 455h-2v-.33l.25-.14 1.75-1.3z"/><path d="M1300 595.76l-4.64-14.26h9.28z" stroke="#000" stroke-width="2"/><path d="M1340 640c0 22.1-17.9 40-40 40s-40-17.9-40-40 17.9-40 40-40 40 17.9 40 40z" stroke="#000" stroke-width="2" fill="#fff"/><use xlink:href="#c" transform="matrix(1,0,0,1,1265,605) translate(30 38.4625)"/><path d="M868.17 666.96H540v93.54" stroke="#000" stroke-width="2" fill="none"/><path d="M868.5 666.27l1.62 1.7h-1.97v-2h.14z"/><path d="M540 775.76l-4.64-14.26h9.28z" stroke="#000" stroke-width="2"/><path d="M580 820c0 22.1-17.9 40-40 40s-40-17.9-40-40 17.9-40 40-40 40 17.9 40 40z" stroke="#000" stroke-width="2" fill="#fff"/><use xlink:href="#c" transform="matrix(1,0,0,1,505,785) translate(30 38.4625)"/><path d="M932.15 666.55H940v93.95" stroke="#000" stroke-width="2" fill="none"/><path d="M932.18 667.55h-1.85l1.65-2h.2z"/><path d="M940 775.76l-4.64-14.26h9.28z" stroke="#000" stroke-width="2"/><path d="M980 820c0 22.1-17.9 40-40 40s-40-17.9-40-40 17.9-40 40-40 40 17.9 40 40z" stroke="#000" stroke-width="2" fill="#fff"/><use xlink:href="#d" transform="matrix(1,0,0,1,905,785) translate(30 38.4625)"/><path d="M1342 640h298v100.5" stroke="#000" stroke-width="2" fill="none"/><path d="M1342.03 641h-1.1l.07-1-.03-1h1.06z"/><path d="M1640 755.76l-4.64-14.26h9.28z" stroke="#000" stroke-width="2"/><path d="M1680 800c0 22.1-17.9 40-40 40s-40-17.9-40-40 17.9-40 40-40 40 17.9 40 40z" stroke="#000" stroke-width="2" fill="#fff"/><use xlink:href="#d" transform="matrix(1,0,0,1,1605,765) translate(30 38.4625)"/><path d="M1258 640h-18v120.5" stroke="#000" stroke-width="2" fill="none"/><path d="M1259 640l.03 1h-1.06v-2h1.1z"/><path d="M1240 775.76l-4.64-14.26h9.28z" stroke="#000" stroke-width="2"/><path d="M1280 820c0 22.1-17.9 40-40 40s-40-17.9-40-40 17.9-40 40-40 40 17.9 40 40z" stroke="#000" stroke-width="2" fill="#fff"/><use xlink:href="#e" transform="matrix(1,0,0,1,1205,785) translate(30 38.4625)"/><path d="M582 820h78v100.5" stroke="#000" stroke-width="2" fill="none"/><path d="M582.03 821h-1.1l.07-1-.03-1h1.06z"/><path d="M660 935.76l-4.64-14.26h9.28z" stroke="#000" stroke-width="2"/><path d="M700 980c0 22.1-17.9 40-40 40s-40-17.9-40-40 17.9-40 40-40 40 17.9 40 40z" stroke="#000" stroke-width="2" fill="#fff"/><use xlink:href="#d" transform="matrix(1,0,0,1,625,945) translate(30 38.4625)"/><path d="M498 820H280v120.5" stroke="#000" stroke-width="2" fill="none"/><path d="M499 820l.03 1h-1.06v-2h1.1z"/><path d="M280 955.76l-4.64-14.26h9.28z" stroke="#000" stroke-width="2"/><path d="M320 1000c0 22.1-17.9 40-40 40s-40-17.9-40-40 17.9-40 40-40 40 17.9 40 40z" stroke="#000" stroke-width="2" fill="#fff"/><use xlink:href="#e" transform="matrix(1,0,0,1,245,965) translate(30 38.4625)"/><path d="M974.27 843.97H1020v76.53" stroke="#000" stroke-width="2" fill="none"/><path d="M974.3 844.97h-1.85l.82-1 .63-1h.4z"/><path d="M1020 935.76l-4.64-14.26h9.28z" stroke="#000" stroke-width="2"/><path d="M1060 980c0 22.1-17.9 40-40 40s-40-17.9-40-40 17.9-40 40-40 40 17.9 40 40z" stroke="#000" stroke-width="2" fill="#fff"/><use xlink:href="#e" transform="matrix(1,0,0,1,985,945) translate(30 38.4625)"/><path d="M907.54 846.3H840v74.2" stroke="#000" stroke-width="2" fill="none"/><path d="M908.5 846.27l1 1.02h-1.98v-2h.28z"/><path d="M840 935.76l-4.64-14.26h9.28z" stroke="#000" stroke-width="2"/><path d="M880 980c0 22.1-17.9 40-40 40s-40-17.9-40-40 17.9-40 40-40 40 17.9 40 40z" stroke="#000" stroke-width="2" fill="#fff"/><use xlink:href="#f" transform="matrix(1,0,0,1,805,945) translate(30 38.4625)"/><path d="M693.27 1001v36.52H740v19M693.27 1001.03V1000" stroke="#000" stroke-width="2" fill="none"/><path d="M740 1071.8l-4.64-14.27h9.28z" stroke="#000" stroke-width="2"/><path d="M780 1116.03c0 22.1-17.9 40-40 40s-40-17.9-40-40 17.9-40 40-40 40 17.9 40 40z" stroke="#000" stroke-width="2" fill="#fff"/><use xlink:href="#e" transform="matrix(1,0,0,1,705,1081.0345680912726) translate(30 38.4625)"/><path d="M628.54 1003.33v35.35H560v17.85M628.54 1003.35v-1.02" stroke="#000" stroke-width="2" fill="none"/><path d="M560 1071.8l-4.64-14.27h9.28z" stroke="#000" stroke-width="2"/><path d="M600 1116.03c0 22.1-17.9 40-40 40s-40-17.9-40-40 17.9-40 40-40 40 17.9 40 40z" stroke="#000" stroke-width="2" fill="#fff"/><use xlink:href="#f" transform="matrix(1,0,0,1,525,1081.0345680912726) translate(30 38.4625)"/><path d="M1682 800h38v96.53" stroke="#000" stroke-width="2" fill="none"/><path d="M1682.03 801h-1.1l.07-1-.03-1h1.06z"/><path d="M1720 911.8l-4.64-14.27h9.28z" stroke="#000" stroke-width="2"/><path d="M1760 956.03c0 22.1-17.9 40-40 40s-40-17.9-40-40 17.9-40 40-40 40 17.9 40 40z" stroke="#000" stroke-width="2" fill="#fff"/><use xlink:href="#g" transform="matrix(1,0,0,1,1685,921.0345680912726) translate(30 38.4625)"/><path d="M1608.54 823.33v45.35H1540v27.85M1608.54 823.35v-1.02" stroke="#000" stroke-width="2" fill="none"/><path d="M1540 911.8l-4.64-14.27h9.28z" stroke="#000" stroke-width="2"/><path d="M1580 956.03c0 22.1-17.9 40-40 40s-40-17.9-40-40 17.9-40 40-40 40 17.9 40 40z" stroke="#000" stroke-width="2" fill="#fff"/><use xlink:href="#h" transform="matrix(1,0,0,1,1505,921.0345680912726) translate(30 38.4625)"/><path d="M1687.9 982.72H1620v77.78" stroke="#000" stroke-width="2" fill="none"/><path d="M1688.5 982.3l1.36 1.42h-1.98v-2h.2z"/><path d="M1620 1075.76l-4.64-14.26h9.28z" stroke="#000" stroke-width="2"/><path d="M1660 1120c0 22.1-17.9 40-40 40s-40-17.9-40-40 17.9-40 40-40 40 17.9 40 40z" stroke="#000" stroke-width="2" fill="#fff"/><use xlink:href="#i" transform="matrix(1,0,0,1,1585,1085) translate(30 38.4625)"/><path d="M1758.23 973.06H1820v87.44" stroke="#000" stroke-width="2" fill="none"/><path d="M1758.25 974.06h-1.5l.94-2h.55z"/><path d="M1820 1075.76l-4.64-14.26h9.28z" stroke="#000" stroke-width="2"/><path d="M1860 1120c0 22.1-17.9 40-40 40s-40-17.9-40-40 17.9-40 40-40 40 17.9 40 40z" stroke="#000" stroke-width="2" fill="#fff"/><use xlink:href="#h" transform="matrix(1,0,0,1,1785,1085) translate(30 38.4625)"/><path d="M1212.6 851.45v46.75H1160v29.24" stroke="#000" stroke-width="2" fill="none"/><path d="M1212.06 850l1.54 1.28v.2h-2v-1.95z"/><path d="M1160 942.7l-4.64-14.26h9.28z" stroke="#000" stroke-width="2"/><path d="M1200 986.94c0 22.1-17.9 40-40 40s-40-17.9-40-40 17.9-40 40-40 40 17.9 40 40z" stroke="#000" stroke-width="2" fill="#fff"/><use xlink:href="#i" transform="matrix(1,0,0,1,1125,951.9429383734057) translate(30 38.4625)"/><path d="M1270 848.94v48h90v30.5" stroke="#000" stroke-width="2" fill="none"/><path d="M1271 848.97h-2v-.08l1-.96 1-1.22z"/><path d="M1360 942.7l-4.64-14.26h9.28z" stroke="#000" stroke-width="2"/><path d="M1400 986.94c0 22.1-17.9 40-40 40s-40-17.9-40-40 17.9-40 40-40 40 17.9 40 40z" stroke="#000" stroke-width="2" fill="#fff"/><use xlink:href="#h" transform="matrix(1,0,0,1,1325,951.9429383734057) translate(30 38.4625)"/><path d="M992.6 1003.5v46.76H940v29.24M992.6 1003.54v-1.03" stroke="#000" stroke-width="2" fill="none"/><path d="M940 1094.76l-4.64-14.26h9.28z" stroke="#000" stroke-width="2"/><path d="M980 1139c0 22.1-17.9 40-40 40s-40-17.9-40-40 17.9-40 40-40 40 17.9 40 40z" stroke="#000" stroke-width="2" fill="#fff"/><use xlink:href="#i" transform="matrix(1,0,0,1,905,1104.0002630185477) translate(30 38.4625)"/><path d="M1050 1001v48h90v30.5M1050 1001.03V1000" stroke="#000" stroke-width="2" fill="none"/><path d="M1140 1094.76l-4.64-14.26h9.28z" stroke="#000" stroke-width="2"/><path d="M1180 1139c0 22.1-17.9 40-40 40s-40-17.9-40-40 17.9-40 40-40 40 17.9 40 40z" stroke="#000" stroke-width="2" fill="#fff"/><use xlink:href="#h" transform="matrix(1,0,0,1,1105,1104.0002630185477) translate(30 38.4625)"/><path d="M712.6 1147.7v46.76H660v29.24M712.6 1147.74v-1.03" stroke="#000" stroke-width="2" fill="none"/><path d="M660 1238.96l-4.64-14.26h9.28z" stroke="#000" stroke-width="2"/><path d="M700 1283.2c0 22.1-17.9 40-40 40s-40-17.9-40-40 17.9-40 40-40 40 17.9 40 40z" stroke="#000" stroke-width="2" fill="#fff"/><use xlink:href="#i" transform="matrix(1,0,0,1,625,1248.1999999999998) translate(30 38.4625)"/><path d="M770 1145.2v48h90v30.5M770 1145.23v-1.03" stroke="#000" stroke-width="2" fill="none"/><path d="M860 1238.96l-4.64-14.26h9.28z" stroke="#000" stroke-width="2"/><path d="M900 1283.2c0 22.1-17.9 40-40 40s-40-17.9-40-40 17.9-40 40-40 40 17.9 40 40z" stroke="#000" stroke-width="2" fill="#fff"/><use xlink:href="#h" transform="matrix(1,0,0,1,825,1248.1999999999998) translate(30 38.4625)"/><path d="M252.6 1030.05v46.74H200v29.23M252.6 1030.07v-1.02" stroke="#000" stroke-width="2" fill="none"/><path d="M200 1121.3l-4.64-14.27h9.28z" stroke="#000" stroke-width="2"/><path d="M240 1165.53c0 22.1-17.9 40-40 40s-40-17.9-40-40 17.9-40 40-40 40 17.9 40 40z" stroke="#000" stroke-width="2" fill="#fff"/><use xlink:href="#i" transform="matrix(1,0,0,1,165,1130.5346996005464) translate(30 38.4625)"/><path d="M310 1027.53v48h90v30.5M310 1027.56v-1.03" stroke="#000" stroke-width="2" fill="none"/><path d="M400 1121.3l-4.64-14.27h9.28z" stroke="#000" stroke-width="2"/><path d="M440 1165.53c0 22.1-17.9 40-40 40s-40-17.9-40-40 17.9-40 40-40 40 17.9 40 40z" stroke="#000" stroke-width="2" fill="#fff"/><use xlink:href="#h" transform="matrix(1,0,0,1,365,1130.5346996005464) translate(30 38.4625)"/><defs><path d="M110-160c48 1 74 30 74 79 0 53-28 85-80 85-65 0-83-55-86-122-5-90 50-162 133-122 14 7 22 21 27 39l-31 6c-5-40-67-38-82-6-9 19-15 44-15 74 11-20 30-34 60-33zm-7 138c34 0 49-23 49-58s-16-56-50-56c-29 0-50 16-49 49 1 36 15 65 50 65" id="j"/><use transform="matrix(0.05,0,0,0.05,0,0)" xlink:href="#j" id="a"/><path d="M54-142c48-35 137-8 131 61C196 18 31 33 14-55l32-4c7 23 22 37 52 37 35-1 51-22 54-58 4-55-73-65-99-34H22l8-134h141v27H59" id="k"/><use transform="matrix(0.05,0,0,0.05,0,0)" xlink:href="#k" id="b"/><path d="M155-56V0h-30v-56H8v-25l114-167h33v167h35v25h-35zm-30-156c-27 46-58 90-88 131h88v-131" id="l"/><use transform="matrix(0.05,0,0,0.05,0,0)" xlink:href="#l" id="c"/><path d="M126-127c33 6 58 20 58 59 0 88-139 92-164 29-3-8-5-16-6-25l32-3c6 27 21 44 54 44 32 0 52-15 52-46 0-38-36-46-79-43v-28c39 1 72-4 72-42 0-27-17-43-46-43-28 0-47 15-49 41l-32-3c6-42 35-63 81-64 48-1 79 21 79 65 0 36-21 52-52 59" id="m"/><use transform="matrix(0.05,0,0,0.05,0,0)" xlink:href="#m" id="d"/><path d="M101-251c82-7 93 87 43 132L82-64C71-53 59-42 53-27h129V0H18c2-99 128-94 128-182 0-28-16-43-45-43s-46 15-49 41l-32-3c6-41 34-60 81-64" id="n"/><use transform="matrix(0.05,0,0,0.05,0,0)" xlink:href="#n" id="e"/><path d="M27 0v-27h64v-190l-56 39v-29l58-41h29v221h61V0H27" id="o"/><use transform="matrix(0.05,0,0,0.05,0,0)" xlink:href="#o" id="f"/><use transform="matrix(0.05,0,0,0.05,0,0)" xlink:href="#n" id="g"/><use transform="matrix(0.05,0,0,0.05,0,0)" xlink:href="#o" id="h"/><path d="M101-251c68 0 85 55 85 127S166 4 100 4C33 4 14-52 14-124c0-73 17-127 87-127zm-1 229c47 0 54-49 54-102s-4-102-53-102c-51 0-55 48-55 102 0 53 5 102 54 102" id="p"/><use transform="matrix(0.05,0,0,0.05,0,0)" xlink:href="#p" id="i"/></defs></g></svg>