<svg xmlns="http://www.w3.org/2000/svg" xmlns:xlink="http://www.w3.org/1999/xlink" id="e35aa0bb-a640-4331-9239-0651161b835c" width="888" height="617.493" data-name="Layer 1" viewBox="0 0 888 617.493"><defs><linearGradient id="b95f881a-d54d-4793-b39d-fd8d178292d1" x1="444" x2="444" y1="377.208" gradientUnits="userSpaceOnUse"><stop offset="0" stop-color="gray" stop-opacity=".25"/><stop offset=".535" stop-color="gray" stop-opacity=".12"/><stop offset="1" stop-color="gray" stop-opacity=".1"/></linearGradient><linearGradient id="bf3ac460-e980-4a56-bf10-7e8f45fba3a4" x1="565.578" x2="565.578" y1="184.629" y2="139.966" xlink:href="#b95f881a-d54d-4793-b39d-fd8d178292d1"/><linearGradient id="b00b2116-0e12-434e-959a-85c093d94590" x1="296.266" x2="296.266" y1="331.113" y2="286.45" xlink:href="#b95f881a-d54d-4793-b39d-fd8d178292d1"/><linearGradient id="eb777225-ba4b-43a3-8f36-ede016b06cb0" x1="698.58" x2="698.58" y1="174.129" y2="129.466" xlink:href="#b95f881a-d54d-4793-b39d-fd8d178292d1"/><linearGradient id="a5536af8-f538-4f5c-bd4b-f0de679d4e6e" x1="565.744" x2="565.744" y1="302.416" y2="257.753" xlink:href="#b95f881a-d54d-4793-b39d-fd8d178292d1"/><linearGradient id="f89f6c0b-50e3-4377-a82a-6d71d8d7a732" x1="272.777" x2="272.777" y1="77.686" y2="33.024" xlink:href="#b95f881a-d54d-4793-b39d-fd8d178292d1"/><linearGradient id="b8b49c0e-c264-4775-aa6e-2a14b987a2d6" x1="721.326" x2="721.326" y1="67.678" y2="23.015" xlink:href="#b95f881a-d54d-4793-b39d-fd8d178292d1"/><linearGradient id="a32cc75e-d258-4708-866c-2eb46f780a0f" x1="830.506" x2="830.506" y1="228.719" y2="184.056" xlink:href="#b95f881a-d54d-4793-b39d-fd8d178292d1"/><linearGradient id="b200c498-46e8-4ae5-8985-5e2f3d61fee6" x1="107.187" x2="107.187" y1="61.309" y2="16.647" xlink:href="#b95f881a-d54d-4793-b39d-fd8d178292d1"/><linearGradient id="b3829c89-4915-4f55-9cb4-28d414033534" x1="627.607" x2="627.607" y1="100.822" y2="56.159" xlink:href="#b95f881a-d54d-4793-b39d-fd8d178292d1"/><linearGradient id="a6787d5e-d3ff-4ff7-a9c8-8f7152892aef" x1="348.287" x2="348.287" y1="195.445" y2="150.782" xlink:href="#b95f881a-d54d-4793-b39d-fd8d178292d1"/><linearGradient id="ba11985d-29a3-423e-b59d-ce2d3bc97e11" x1="503.869" x2="503.869" y1="244.576" y2="199.913" xlink:href="#b95f881a-d54d-4793-b39d-fd8d178292d1"/><linearGradient id="e142e87e-1316-43eb-97ff-e25a5f9aee53" x1="557.8" x2="557.8" y1="77.882" y2="33.219" xlink:href="#b95f881a-d54d-4793-b39d-fd8d178292d1"/><linearGradient id="af03e972-8795-4f82-a4ce-7a326cc80323" x1="638.775" x2="638.775" y1="273.496" y2="228.834" xlink:href="#b95f881a-d54d-4793-b39d-fd8d178292d1"/><linearGradient id="aeab9009-66c2-4437-abf0-c21a97ad1ce9" x1="360.365" x2="360.365" y1="77.882" y2="33.219" xlink:href="#b95f881a-d54d-4793-b39d-fd8d178292d1"/><linearGradient id="a99e06ce-daa7-472a-954a-1f510efeba2a" x1="421.324" x2="421.324" y1="321.718" y2="277.055" xlink:href="#b95f881a-d54d-4793-b39d-fd8d178292d1"/><linearGradient id="b8c44bde-4016-4e5e-a844-edaf1cdd8ad8" x1="494.799" x2="494.799" y1="139.128" y2="94.466" xlink:href="#b95f881a-d54d-4793-b39d-fd8d178292d1"/><linearGradient id="e9fd1ed7-6864-4b08-a5ca-c03436a79804" x1="261.881" x2="261.881" y1="153.686" y2="109.023" xlink:href="#b95f881a-d54d-4793-b39d-fd8d178292d1"/><linearGradient id="a6f6dfe2-34cd-4380-ac25-8987790e5589" x1="830.528" x2="830.528" y1="110.923" y2="66.261" xlink:href="#b95f881a-d54d-4793-b39d-fd8d178292d1"/><linearGradient id="b0f139fd-d6c3-4e79-943e-84b96cc8b419" x1="744.094" x2="744.094" y1="322.005" y2="277.343" xlink:href="#b95f881a-d54d-4793-b39d-fd8d178292d1"/></defs><title>Creation process</title><rect width="888" height="377.208" fill="url(#b95f881a-d54d-4793-b39d-fd8d178292d1)"/><rect width="869.394" height="370.042" x="9.925" y="2.66" fill="#eee"/><rect width="46.13" height="44.663" x="542.513" y="139.966" fill="url(#bf3ac460-e980-4a56-bf10-7e8f45fba3a4)"/><rect width="44.541" height="43.125" x="543.307" y="140.736" fill="#f5f5f5"/><rect width="46.13" height="44.663" x="273.201" y="286.45" fill="url(#b00b2116-0e12-434e-959a-85c093d94590)"/><rect width="44.541" height="43.125" x="273.996" y="287.219" fill="#f5f5f5"/><rect width="46.13" height="44.663" x="675.515" y="129.466" fill="url(#eb777225-ba4b-43a3-8f36-ede016b06cb0)"/><rect width="44.541" height="43.125" x="676.31" y="130.235" fill="#f5f5f5"/><rect width="46.13" height="44.663" x="542.679" y="257.753" fill="url(#a5536af8-f538-4f5c-bd4b-f0de679d4e6e)"/><rect width="44.541" height="43.125" x="543.474" y="258.522" fill="#f5f5f5"/><rect width="46.13" height="44.663" x="249.712" y="33.024" fill="url(#f89f6c0b-50e3-4377-a82a-6d71d8d7a732)"/><rect width="44.541" height="43.125" x="250.506" y="33.793" fill="#f5f5f5"/><rect width="46.13" height="44.663" x="698.261" y="23.015" fill="url(#b8b49c0e-c264-4775-aa6e-2a14b987a2d6)"/><rect width="44.541" height="43.125" x="699.055" y="23.785" fill="#f5f5f5"/><rect width="46.13" height="44.663" x="807.441" y="184.056" fill="url(#a32cc75e-d258-4708-866c-2eb46f780a0f)"/><rect width="44.541" height="43.125" x="808.236" y="184.826" fill="#f5f5f5"/><rect width="46.13" height="44.663" x="84.122" y="16.647" fill="url(#b200c498-46e8-4ae5-8985-5e2f3d61fee6)"/><rect width="44.541" height="43.125" x="84.916" y="17.416" fill="#f5f5f5"/><rect width="46.13" height="44.663" x="604.542" y="56.159" fill="url(#b3829c89-4915-4f55-9cb4-28d414033534)"/><rect width="44.541" height="43.125" x="605.336" y="56.928" fill="#7cfcff"/><rect width="46.13" height="44.663" x="325.222" y="150.782" fill="url(#a6787d5e-d3ff-4ff7-a9c8-8f7152892aef)"/><rect width="44.541" height="43.125" x="326.016" y="151.551" fill="#7cfcff"/><rect width="46.13" height="44.663" x="480.804" y="199.913" fill="url(#ba11985d-29a3-423e-b59d-ce2d3bc97e11)"/><rect width="44.541" height="43.125" x="481.598" y="200.683" fill="#7cfcff"/><rect width="46.13" height="44.663" x="534.735" y="33.219" fill="url(#e142e87e-1316-43eb-97ff-e25a5f9aee53)"/><rect width="44.541" height="43.125" x="535.529" y="33.988" fill="#ffffa5"/><rect width="46.13" height="44.663" x="615.71" y="228.834" fill="url(#af03e972-8795-4f82-a4ce-7a326cc80323)"/><rect width="44.541" height="43.125" x="616.505" y="229.603" fill="#ffffa5"/><rect width="46.13" height="44.663" x="337.3" y="33.219" fill="url(#aeab9009-66c2-4437-abf0-c21a97ad1ce9)"/><rect width="44.541" height="43.125" x="338.095" y="33.988" fill="#ffffa5"/><rect width="46.13" height="44.663" x="398.259" y="277.055" fill="url(#a99e06ce-daa7-472a-954a-1f510efeba2a)"/><rect width="44.541" height="43.125" x="399.054" y="277.824" fill="#ffffa5"/><rect width="46.13" height="44.663" x="471.734" y="94.466" fill="url(#b8c44bde-4016-4e5e-a844-edaf1cdd8ad8)"/><rect width="44.541" height="43.125" x="472.528" y="95.235" fill="#ff69b4"/><rect width="46.13" height="44.663" x="244.275" y="112.662" opacity=".1"/><rect width="46.13" height="44.663" x="238.816" y="109.023" fill="url(#e9fd1ed7-6864-4b08-a5ca-c03436a79804)"/><rect width="44.541" height="43.125" x="239.61" y="109.792" fill="#ff69b4"/><rect width="46.13" height="44.663" x="807.463" y="66.261" fill="url(#a6f6dfe2-34cd-4380-ac25-8987790e5589)"/><rect width="44.541" height="43.125" x="808.258" y="67.03" fill="#ff69b4"/><rect width="46.13" height="44.663" x="721.029" y="277.343" fill="url(#b0f139fd-d6c3-4e79-943e-84b96cc8b419)"/><rect width="44.541" height="43.125" x="721.823" y="278.112" fill="#ff69b4"/><polygon fill="#edeef9" points="113.125 185.611 108.132 200.26 159.439 198.421 139.731 186.596 113.125 185.611"/><polygon fill="#edeef9" points="243.527 200.392 246.155 197.107 268.491 210.246 268.491 216.158 243.527 200.392"/><path fill="#a0616a" d="M344.545,314.0159l20-21s22-33,38-24-23,30-23,30l-20,33Z" transform="translate(-156 -141.25347)"/><path fill="#2f2e41" d="M281.545,721.0159s-15,29-4,31,65,5,66,2,9-13,3-17-30-7-30-7l-8-8Z" transform="translate(-156 -141.25347)"/><path fill="#2f2e41" d="M273.545,438.0159s-32,40-6,81l6,69s-11,95,3,127l2,11h35l-9-84s1-10,4-12,52-110,52-110-8-15-5-18-3-63-6-65S273.545,438.0159,273.545,438.0159Z" transform="translate(-156 -141.25347)"/><polygon fill="#a0616a" points="174.545 570.762 178.545 593.762 139.545 591.762 144.545 566.762 174.545 570.762"/><circle cx="167.545" cy="132.762" r="30" fill="#a0616a"/><path fill="#a0616a" d="M296.545,279.0159l-3,36,32,15s-5.5-33.5-1.5-42.5Z" transform="translate(-156 -141.25347)"/><path fill="#575a89" d="M329.545,328.0159l-3-12-41-15s-4,0-3,7,1,6,1,6-14,6-15,16-17,13-16,28,6,23,6,23-5,12,3,19c0,0,8,14,4,24s-9,27,2,24,87-8,87-8,11-41-1-56c0,0,0-9-9-27S329.545,328.0159,329.545,328.0159Z" transform="translate(-156 -141.25347)"/><path fill="#a0616a" d="M276.545,441.0159s13,55,29,61c0,0,3,40,20,38s0-38,0-38l-19-69Z" transform="translate(-156 -141.25347)"/><path fill="#575a89" d="M327.545,331.0159s15-24,19-20,24,16,23,24-10,8-10,8l-21,16Z" transform="translate(-156 -141.25347)"/><path fill="#2f2e41" d="M348.545,510.0159l12,8.626,8,85.374s-29,116-37,117-41,1-40-2,6-15,6-18,10.42947-26.9916,10.42947-26.9916L321.545,618.0159l-3-44Z" transform="translate(-156 -141.25347)"/><path fill="#2f2e41" d="M333.545,727.0159s-42-13-44-10-15.34029,33.23622,3.32986,36.61811,85.67014,9.38189,85.67014.38189-2-15-8-15-33-13-35-16S333.545,727.0159,333.545,727.0159Z" transform="translate(-156 -141.25347)"/><path fill="#2f2e41" d="M295.09874,275.98782a2.96116,2.96116,0,0,1,4.00626-3.95925l.05282.03039a5.18949,5.18949,0,0,1,2.44,5.18855c3.60617-3.59817.94848-10.81406,4.84485-14.09577,1.80348-1.519,4.731-1.85316,5.65752-4.02144.53938-1.26232.17266-2.75854.64811-4.04629.706-1.91216,2.96144-2.71065,4.97748-3.01129,6.33994-.94544,12.75166.66337,18.95976,2.25967,2.28275.587,4.68306,1.23922,6.34578,2.9098,1.75129,1.75955,2.36066,4.31619,3.43452,6.55445s8.11694,2.036,10.57919,1.71926c.856-2.43147-5.46588-2.61479-5.98194-5.14036-1.41054-6.903,3.50152-14.24353,1.09178-20.86431-1.452-3.98948-5.24519-6.63037-9.06408-8.48522a48.10819,48.10819,0,0,0-34.039-2.90465,7.55783,7.55783,0,0,0-3.14377,1.52008c-1.45333,1.35677-1.72276,3.53517-2.69065,5.27189-2.20532,3.95705-7.43556,4.89751-10.9623,7.74071-5.34123,4.306-5.9434,12.08108-6.11634,18.93969-.0871,3.454-.14856,7.043,1.26617,10.19524s4.76725,5.72073,8.1587,5.06048C295.403,276.58864,295.249,276.29708,295.09874,275.98782Z" transform="translate(-156 -141.25347)"/><path fill="#575a89" d="M300.31628,340.76058a21.30653,21.30653,0,0,0-26.00812,1.3217c-6.89193,5.85666-14.306,14.24779-13.76315,22.93362,1,16,7,82,15,83s37-7,37-12-7-11-7-11l8.49925-50.9955a33.70885,33.70885,0,0,0-13.2793-32.9407Q300.54223,340.91937,300.31628,340.76058Z" transform="translate(-156 -141.25347)"/></svg>