<svg xmlns="http://www.w3.org/2000/svg" xmlns:xlink="http://www.w3.org/1999/xlink" xmlns:lucid="lucid" width="1327" height="751"><g transform="translate(-220 -60)" lucid:page-tab-id="0_0"><path d="M0 0h1870.4v1323.2H0z" fill="#fff"/><path d="M960 180h240v60H960z" fill="none"/><use xlink:href="#a" transform="matrix(1,0,0,1,960,180) translate(11.222222222222229 35.333333333333336)"/><path d="M815.2 80h240v60h-240z" fill="none"/><use xlink:href="#b" transform="matrix(1,0,0,1,815.1999999999999,80) translate(91.88888888888889 35.333333333333336)"/><path d="M400 280h240v60H400z" fill="none"/><use xlink:href="#c" transform="matrix(1,0,0,1,400,280) translate(66.33333333333333 35.333333333333336)"/><use xlink:href="#d" transform="matrix(1,0,0,1,400,280) translate(135.88888888888889 35.333333333333336)"/><use xlink:href="#e" transform="matrix(1,0,0,1,400,280) translate(158.85185185185185 35.333333333333336)"/><path d="M400 480h240v60H400z" fill="none"/><use xlink:href="#c" transform="matrix(1,0,0,1,400,480) translate(66.33333333333333 35.333333333333336)"/><use xlink:href="#d" transform="matrix(1,0,0,1,400,480) translate(135.88888888888889 35.333333333333336)"/><use xlink:href="#f" transform="matrix(1,0,0,1,400,480) translate(158.85185185185185 35.333333333333336)"/><path d="M416.8 454.08v-83.16c0-4.08-3.67-10.92-8.3-10.92h-144c-4.62 0-9.06 6.84-9.06 10.92v83.16c-16.2 17.28-15.44 17.28-15.44 17.28 0 4.92 4.44 8.64 10.23 8.64h172.55c5.8 0 10.23-4.08 10.23-8.64l-16.2-17.28zM349.8 472.8h-30.1c-1.55 0-3.1-.72-3.1-1.44l3.48-5.64c0-.72 1.16-1.2 2.7-1.2h23.93c1.16 0 2.32.48 2.32 1.2l3.86 5.64c0 1.08-1.53 1.44-3.08 1.44zm59.83-19.2H262.58v-81.96c0-1.92 1.93-4.56 4.06-4.56H406c2.1 0 3.65 2.64 3.65 4.56v81.96z" stroke="#000" stroke-opacity="0"/><use xlink:href="#g" transform="matrix(1,0,0,1,210,489) translate(86.25925925925925 21.333333333333336)"/><path d="M1495.67 365.28c3.57 0 6.35 2.87 6.35 6.42l24.97 96v5.86c0 3.56-2.88 6.43-6.36 6.43h-74.3c-3.47 0-6.34-2.88-6.34-6.44v-5.27l28-96.6c0-3.55 2.8-6.42 6.36-6.42z" fill="#4f4f4f"/><path d="M1520.64 360c3.48 0 6.35 2.87 6.35 6.42v101.8c0 3.55-2.88 6.42-6.36 6.42h-74.3c-3.47 0-6.34-2.87-6.34-6.42v-101.8c0-3.55 2.87-6.42 6.35-6.42z" fill="#7d7c7c"/><path d="M1513.4 408.5h-59.9v-7.08h59.9zm0-11.97h-59.9v-7.07h59.9zm0-12.53h-59.9v-7.07h59.9z" fill="#fff"/><use xlink:href="#h" transform="matrix(1,0,0,1,1440,480) translate(4.3148148148148096 21.333333333333336)"/><path d="M640 81v718M640 81.03V80M640 798.97V800M1280 81v718M1280 81.03V80M1280 798.97V800" stroke="#000" stroke-width="2" fill="none"/><path d="M400 120h240v60H400z" stroke="#000" stroke-opacity="0" stroke-width="2" fill="#fff" fill-opacity="0"/><use xlink:href="#c" transform="matrix(1,0,0,1,405,125) translate(61.33333333333333 30.333333333333336)"/><use xlink:href="#d" transform="matrix(1,0,0,1,405,125) translate(130.88888888888889 30.333333333333336)"/><use xlink:href="#i" transform="matrix(1,0,0,1,405,125) translate(153.85185185185185 30.333333333333336)"/><path d="M641 120.05l620.52 31.03" stroke="#0c7cba" stroke-width="2" fill="none"/><path d="M641.07 119.05l-.1 2-.97-.05v-1h-3l.05-1.15z" fill="#0c7cba"/><path d="M1276.77 151.84l-14.48 3.92.45-9.26z" stroke="#0c7cba" stroke-width="2" fill="#0c7cba"/><path d="M1279 170.74L658.46 214.7M1278.98 170.74l1.02-.07" stroke="#000" stroke-width="2" fill="none"/><path d="M643.23 215.77l13.9-5.63.66 9.25z" stroke="#000" stroke-width="2"/><path d="M641 281.38l620.52 28.44M641.02 281.38l-1.02-.05" stroke="#0c7cba" stroke-width="2" fill="none"/><path d="M1276.77 310.52l-14.47 3.98.43-9.27z" stroke="#0c7cba" stroke-width="2" fill="#0c7cba"/><path d="M641 294.7l620.52 27.16" stroke="#0c7cba" stroke-width="2" fill="none"/><path d="M641.07 293.7l-.1 2-.97-.03v-2z" fill="#0c7cba"/><path d="M1276.77 322.53l-14.46 4 .42-9.26z" stroke="#0c7cba" stroke-width="2" fill="#0c7cba"/><path d="M1279 342.7l-620.5 21.98M1278.98 342.7l1.02-.03" stroke="#000" stroke-width="2" fill="none"/><path d="M643.23 365.22l14.1-5.14.33 9.27z" stroke="#000" stroke-width="2"/><path d="M1279 369.35L658.5 379.7M1278.97 369.35l1.03-.02" stroke="#000" stroke-width="2" fill="none"/><path d="M643.24 379.95l14.18-4.88.16 9.27z" stroke="#000" stroke-width="2"/><path d="M641 457.37l620.5 21.98M641.02 457.37l-1.02-.04" stroke="#0c7cba" stroke-width="2" fill="none"/><path d="M1276.77 479.9l-14.43 4.1.33-9.25z" stroke="#0c7cba" stroke-width="2" fill="#0c7cba"/><path d="M641 472.04L1261.5 494M641.02 472.04L640 472" stroke="#0c7cba" stroke-width="2" fill="none"/><path d="M1276.77 494.55l-14.43 4.13.33-9.27z" stroke="#0c7cba" stroke-width="2" fill="#0c7cba"/><path d="M641 492.03l620.5 16.8" stroke="#0c7cba" stroke-width="2" fill="none"/><path d="M641.05 491.03l-.05 2-1-.03v-2z" fill="#0c7cba"/><path d="M1276.77 509.25l-14.4 4.24.26-9.27z" stroke="#0c7cba" stroke-width="2" fill="#0c7cba"/><path d="M641 505.36l620.5 18.1M641.03 505.36l-1.03-.03" stroke="#0c7cba" stroke-width="2" fill="none"/><path d="M1276.77 523.9l-14.4 4.22.27-9.26z" stroke="#0c7cba" stroke-width="2" fill="#0c7cba"/><path d="M1279 596.05l-620.52 32.32M1278.98 596.05l1.02-.05" stroke="#000" stroke-width="2" fill="none"/><path d="M643.23 629.17l14-5.38.5 9.25z" stroke="#000" stroke-width="2"/><path d="M1279 618.7l-620.5 20.68M1278.97 618.7l1.03-.03" stroke="#000" stroke-width="2" fill="none"/><path d="M643.23 639.9l14.1-5.12.32 9.27z" stroke="#000" stroke-width="2"/><path d="M1279 641.35L658.5 653M1278.97 641.35l1.03-.02" stroke="#000" stroke-width="2" fill="none"/><path d="M643.24 653.27l14.17-4.9.2 9.27z" stroke="#000" stroke-width="2"/><path d="M1279 661.34l-620.5 3.88M1278.97 661.34h1.03" stroke="#000" stroke-width="2" fill="none"/><path d="M643.24 665.3l14.23-4.7.06 9.26z" stroke="#000" stroke-width="2"/><defs><path d="M205 0l-28-72H64L36 0H1l101-248h38L239 0h-34zm-38-99l-47-123c-12 45-31 82-46 123h93" id="j"/><path d="M96-169c-40 0-48 33-48 73s9 75 48 75c24 0 41-14 43-38l32 2c-6 37-31 61-74 61-59 0-76-41-82-99-10-93 101-131 147-64 4 7 5 14 7 22l-32 3c-4-21-16-35-41-35" id="k"/><path d="M143 0L79-87 56-68V0H24v-261h32v163l83-92h37l-77 82L181 0h-38" id="l"/><path d="M117-194c89-4 53 116 60 194h-32v-121c0-31-8-49-39-48C34-167 62-67 57 0H25l-1-190h30c1 10-1 24 2 32 11-22 29-35 61-36" id="m"/><path d="M100-194c62-1 85 37 85 99 1 63-27 99-86 99S16-35 15-95c0-66 28-99 85-99zM99-20c44 1 53-31 53-75 0-43-8-75-51-75s-53 32-53 75 10 74 51 75" id="n"/><path d="M206 0h-36l-40-164L89 0H53L-1-190h32L70-26l43-164h34l41 164 42-164h31" id="o"/><path d="M24 0v-261h32V0H24" id="p"/><path d="M100-194c63 0 86 42 84 106H49c0 40 14 67 53 68 26 1 43-12 49-29l28 8c-11 28-37 45-77 45C44 4 14-33 15-96c1-61 26-98 85-98zm52 81c6-60-76-77-97-28-3 7-6 17-6 28h103" id="q"/><path d="M85-194c31 0 48 13 60 33l-1-100h32l1 261h-30c-2-10 0-23-3-31C134-8 116 4 85 4 32 4 16-35 15-94c0-66 23-100 70-100zm9 24c-40 0-46 34-46 75 0 40 6 74 45 74 42 0 51-32 51-76 0-42-9-74-50-73" id="r"/><path d="M177-190C167-65 218 103 67 71c-23-6-38-20-44-43l32-5c15 47 100 32 89-28v-30C133-14 115 1 83 1 29 1 15-40 15-95c0-56 16-97 71-98 29-1 48 16 59 35 1-10 0-23 2-32h30zM94-22c36 0 50-32 50-73 0-42-14-75-50-75-39 0-46 34-46 75s6 73 46 73" id="s"/><path d="M210-169c-67 3-38 105-44 169h-31v-121c0-29-5-50-35-48C34-165 62-65 56 0H25l-1-190h30c1 10-1 24 2 32 10-44 99-50 107 0 11-21 27-35 58-36 85-2 47 119 55 194h-31v-121c0-29-5-49-35-48" id="t"/><path d="M59-47c-2 24 18 29 38 22v24C64 9 27 4 27-40v-127H5v-23h24l9-43h21v43h35v23H59v120" id="u"/><g id="a"><use transform="matrix(0.07407407407407408,0,0,0.07407407407407408,0,0)" xlink:href="#j"/><use transform="matrix(0.07407407407407408,0,0,0.07407407407407408,17.77777777777778,0)" xlink:href="#k"/><use transform="matrix(0.07407407407407408,0,0,0.07407407407407408,31.111111111111114,0)" xlink:href="#l"/><use transform="matrix(0.07407407407407408,0,0,0.07407407407407408,44.44444444444445,0)" xlink:href="#m"/><use transform="matrix(0.07407407407407408,0,0,0.07407407407407408,59.25925925925927,0)" xlink:href="#n"/><use transform="matrix(0.07407407407407408,0,0,0.07407407407407408,74.07407407407408,0)" xlink:href="#o"/><use transform="matrix(0.07407407407407408,0,0,0.07407407407407408,93.25925925925927,0)" xlink:href="#p"/><use transform="matrix(0.07407407407407408,0,0,0.07407407407407408,99.11111111111111,0)" xlink:href="#q"/><use transform="matrix(0.07407407407407408,0,0,0.07407407407407408,113.92592592592592,0)" xlink:href="#r"/><use transform="matrix(0.07407407407407408,0,0,0.07407407407407408,128.74074074074073,0)" xlink:href="#s"/><use transform="matrix(0.07407407407407408,0,0,0.07407407407407408,143.55555555555554,0)" xlink:href="#q"/><use transform="matrix(0.07407407407407408,0,0,0.07407407407407408,158.37037037037035,0)" xlink:href="#t"/><use transform="matrix(0.07407407407407408,0,0,0.07407407407407408,180.5185185185185,0)" xlink:href="#q"/><use transform="matrix(0.07407407407407408,0,0,0.07407407407407408,195.33333333333331,0)" xlink:href="#m"/><use transform="matrix(0.07407407407407408,0,0,0.07407407407407408,210.1481481481481,0)" xlink:href="#u"/></g><path d="M30-248c118-7 216 8 213 122C240-48 200 0 122 0H30v-248zM63-27c89 8 146-16 146-99s-60-101-146-95v194" id="v"/><path d="M141-36C126-15 110 5 73 4 37 3 15-17 15-53c-1-64 63-63 125-63 3-35-9-54-41-54-24 1-41 7-42 31l-33-3c5-37 33-52 76-52 45 0 72 20 72 64v82c-1 20 7 32 28 27v20c-31 9-61-2-59-35zM48-53c0 20 12 33 32 33 41-3 63-29 60-74-43 2-92-5-92 41" id="w"/><g id="b"><use transform="matrix(0.07407407407407408,0,0,0.07407407407407408,0,0)" xlink:href="#v"/><use transform="matrix(0.07407407407407408,0,0,0.07407407407407408,19.185185185185187,0)" xlink:href="#w"/><use transform="matrix(0.07407407407407408,0,0,0.07407407407407408,34,0)" xlink:href="#u"/><use transform="matrix(0.07407407407407408,0,0,0.07407407407407408,41.407407407407405,0)" xlink:href="#w"/></g><g id="c"><use transform="matrix(0.07407407407407408,0,0,0.07407407407407408,0,0)" xlink:href="#k"/><use transform="matrix(0.07407407407407408,0,0,0.07407407407407408,13.333333333333336,0)" xlink:href="#o"/><use transform="matrix(0.07407407407407408,0,0,0.07407407407407408,32.51851851851852,0)" xlink:href="#r"/><use transform="matrix(0.07407407407407408,0,0,0.07407407407407408,47.33333333333334,0)" xlink:href="#m"/></g><path d="M18-150v-26h174v26H18zm0 90v-26h174v26H18" id="x"/><use transform="matrix(0.07407407407407408,0,0,0.07407407407407408,0,0)" xlink:href="#x" id="d"/><path d="M101-251c82-7 93 87 43 132L82-64C71-53 59-42 53-27h129V0H18c2-99 128-94 128-182 0-28-16-43-45-43s-46 15-49 41l-32-3c6-41 34-60 81-64" id="y"/><use transform="matrix(0.07407407407407408,0,0,0.07407407407407408,0,0)" xlink:href="#y" id="e"/><path d="M155-56V0h-30v-56H8v-25l114-167h33v167h35v25h-35zm-30-156c-27 46-58 90-88 131h88v-131" id="z"/><use transform="matrix(0.07407407407407408,0,0,0.07407407407407408,0,0)" xlink:href="#z" id="f"/><path d="M30 0v-248h33v221h125V0H30" id="A"/><path d="M115-194c55 1 70 41 70 98S169 2 115 4C84 4 66-9 55-30l1 105H24l-1-265h31l2 30c10-21 28-34 59-34zm-8 174c40 0 45-34 45-75s-6-73-45-74c-42 0-51 32-51 76 0 43 10 73 51 73" id="B"/><g id="g"><use transform="matrix(0.07407407407407408,0,0,0.07407407407407408,0,0)" xlink:href="#A"/><use transform="matrix(0.07407407407407408,0,0,0.07407407407407408,14.814814814814817,0)" xlink:href="#w"/><use transform="matrix(0.07407407407407408,0,0,0.07407407407407408,29.629629629629633,0)" xlink:href="#B"/><use transform="matrix(0.07407407407407408,0,0,0.07407407407407408,44.44444444444445,0)" xlink:href="#u"/><use transform="matrix(0.07407407407407408,0,0,0.07407407407407408,51.85185185185186,0)" xlink:href="#n"/><use transform="matrix(0.07407407407407408,0,0,0.07407407407407408,66.66666666666669,0)" xlink:href="#B"/></g><path d="M185-189c-5-48-123-54-124 2 14 75 158 14 163 119 3 78-121 87-175 55-17-10-28-26-33-46l33-7c5 56 141 63 141-1 0-78-155-14-162-118-5-82 145-84 179-34 5 7 8 16 11 25" id="C"/><path d="M114-163C36-179 61-72 57 0H25l-1-190h30c1 12-1 29 2 39 6-27 23-49 58-41v29" id="D"/><path d="M108 0H70L1-190h34L89-25l56-165h34" id="E"/><g id="h"><use transform="matrix(0.07407407407407408,0,0,0.07407407407407408,0,0)" xlink:href="#C"/><use transform="matrix(0.07407407407407408,0,0,0.07407407407407408,17.77777777777778,0)" xlink:href="#q"/><use transform="matrix(0.07407407407407408,0,0,0.07407407407407408,32.592592592592595,0)" xlink:href="#D"/><use transform="matrix(0.07407407407407408,0,0,0.07407407407407408,41.40740740740741,0)" xlink:href="#E"/><use transform="matrix(0.07407407407407408,0,0,0.07407407407407408,54.74074074074075,0)" xlink:href="#q"/><use transform="matrix(0.07407407407407408,0,0,0.07407407407407408,69.55555555555557,0)" xlink:href="#D"/></g><path d="M27 0v-27h64v-190l-56 39v-29l58-41h29v221h61V0H27" id="F"/><use transform="matrix(0.07407407407407408,0,0,0.07407407407407408,0,0)" xlink:href="#F" id="i"/></defs></g></svg>