<svg xmlns="http://www.w3.org/2000/svg" xmlns:xlink="http://www.w3.org/1999/xlink" xmlns:lucid="lucid" width="1482.78" height="600"><g transform="translate(-280 -160)" lucid:page-tab-id="0_0"><path d="M0 0h1870.4v1323.2H0z" fill="#fff"/><path d="M300 560h960v120H300z" stroke="#000" stroke-width="2" fill="#fff"/><path d="M620 180h240v60H620z" fill="none"/><use xlink:href="#a" transform="matrix(1,0,0,1,620,180) translate(86.7037037037037 35.333333333333336)"/><path d="M1460 420h280v160h-280z" fill="none"/><use xlink:href="#b" transform="matrix(1,0,0,1,1460,420) translate(13.111111111111114 37.333333333333336)"/><use xlink:href="#c" transform="matrix(1,0,0,1,1460,420) translate(36.074074074074076 37.333333333333336)"/><use xlink:href="#d" transform="matrix(1,0,0,1,1460,420) translate(64.14814814814815 37.333333333333336)"/><use xlink:href="#e" transform="matrix(1,0,0,1,1460,420) translate(108.59259259259261 37.333333333333336)"/><use xlink:href="#f" transform="matrix(1,0,0,1,1460,420) translate(207.62962962962965 37.333333333333336)"/><use xlink:href="#g" transform="matrix(1,0,0,1,1460,420) translate(237.25925925925927 37.333333333333336)"/><use xlink:href="#h" transform="matrix(1,0,0,1,1460,420) translate(0.07407407407407618 69.33333333333334)"/><use xlink:href="#i" transform="matrix(1,0,0,1,1460,420) translate(151.03703703703704 69.33333333333334)"/><use xlink:href="#j" transform="matrix(1,0,0,1,1460,420) translate(186.5925925925926 69.33333333333334)"/><use xlink:href="#k" transform="matrix(1,0,0,1,1460,420) translate(251.7777777777778 69.33333333333334)"/><use xlink:href="#d" transform="matrix(1,0,0,1,1460,420) translate(46.77777777777777 101.33333333333334)"/><use xlink:href="#l" transform="matrix(1,0,0,1,1460,420) translate(91.22222222222221 101.33333333333334)"/><use xlink:href="#m" transform="matrix(1,0,0,1,1460,420) translate(214.03703703703704 101.33333333333334)"/><use xlink:href="#n" transform="matrix(1,0,0,1,1460,420) translate(68.22222222222223 133.33333333333334)"/><path d="M300 240h960v120H300z" stroke="#000" stroke-width="2" fill="#fff"/><path d="M300 240h160v120H300z" stroke="#000" stroke-width="2" fill="#0c7cba"/><use xlink:href="#o" transform="matrix(1,0,0,1,305,245) translate(15.074074074074076 60.333333333333336)"/><path d="M460 240h160v120H460z" stroke="#000" stroke-width="2" fill="#3aa6dd"/><use xlink:href="#o" transform="matrix(1,0,0,1,465,245) translate(15.074074074074076 60.333333333333336)"/><path d="M1100 240h160v120h-160z" stroke="#000" stroke-width="2" fill="#fcc438"/><use xlink:href="#o" transform="matrix(1,0,0,1,1105,245) translate(15.074074074074076 60.333333333333336)"/><path d="M780 560h160v120H780z" stroke="#000" stroke-width="2" fill="#f5b5c8"/><use xlink:href="#o" transform="matrix(1,0,0,1,785,565) translate(15.074074074074076 60.333333333333336)"/><path d="M940 240h160v120H940z" stroke="#000" stroke-width="2" fill="#7ab648"/><use xlink:href="#o" transform="matrix(1,0,0,1,945,245) translate(15.074074074074076 60.333333333333336)"/><path d="M620 240h160v120H620z" stroke="#000" stroke-width="2" fill="#19967d"/><use xlink:href="#o" transform="matrix(1,0,0,1,625,245) translate(15.074074074074076 60.333333333333336)"/><path d="M620 680h240v60H620z" fill="none"/><use xlink:href="#p" transform="matrix(1,0,0,1,620,680) translate(46.03703703703705 35.333333333333336)"/><path d="M856 362v178.5" stroke="#000" stroke-width="2" fill="none"/><path d="M857 362.03h-2V361h2z"/><path d="M856 555.76l-4.64-14.26h9.28z" stroke="#000" stroke-width="2"/><path d="M380 362v178.5" stroke="#c92d39" stroke-width="2" fill="none"/><path d="M381 362.03h-2V361h2z" fill="#c92d39"/><path d="M380 555.76l-4.64-14.26h9.28z" stroke="#c92d39" stroke-width="2" fill="#c92d39"/><path d="M1180 362v178.5" stroke="#c92d39" stroke-width="2" fill="none"/><path d="M1181 362.03h-2V361h2z" fill="#c92d39"/><path d="M1180 555.76l-4.64-14.26h9.28z" stroke="#c92d39" stroke-width="2" fill="#c92d39"/><path d="M540 362v178.5" stroke="#c92d39" stroke-width="2" fill="none"/><path d="M541 362.03h-2V361h2z" fill="#c92d39"/><path d="M540 555.76l-4.64-14.26h9.28z" stroke="#c92d39" stroke-width="2" fill="#c92d39"/><path d="M1460 460c0 33.14-26.86 60-60 60s-60-26.86-60-60 26.86-60 60-60 60 26.86 60 60z" stroke="#000" stroke-width="2" fill="#c92d39"/><defs><path d="M30-248c87 1 191-15 191 75 0 78-77 80-158 76V0H30v-248zm33 125c57 0 124 11 124-50 0-59-68-47-124-48v98" id="q"/><path d="M24-231v-30h32v30H24zM24 0v-190h32V0H24" id="r"/><path d="M100-194c63 0 86 42 84 106H49c0 40 14 67 53 68 26 1 43-12 49-29l28 8c-11 28-37 45-77 45C44 4 14-33 15-96c1-61 26-98 85-98zm52 81c6-60-76-77-97-28-3 7-6 17-6 28h103" id="s"/><path d="M96-169c-40 0-48 33-48 73s9 75 48 75c24 0 41-14 43-38l32 2c-6 37-31 61-74 61-59 0-76-41-82-99-10-93 101-131 147-64 4 7 5 14 7 22l-32 3c-4-21-16-35-41-35" id="t"/><g id="a"><use transform="matrix(0.07407407407407408,0,0,0.07407407407407408,0,0)" xlink:href="#q"/><use transform="matrix(0.07407407407407408,0,0,0.07407407407407408,17.77777777777778,0)" xlink:href="#r"/><use transform="matrix(0.07407407407407408,0,0,0.07407407407407408,23.629629629629633,0)" xlink:href="#s"/><use transform="matrix(0.07407407407407408,0,0,0.07407407407407408,38.44444444444445,0)" xlink:href="#t"/><use transform="matrix(0.07407407407407408,0,0,0.07407407407407408,51.777777777777786,0)" xlink:href="#s"/></g><path d="M18-150v-26h174v26H18zm0 90v-26h174v26H18" id="u"/><use transform="matrix(0.07407407407407408,0,0,0.07407407407407408,0,0)" xlink:href="#u" id="b"/><path d="M117-194c89-4 53 116 60 194h-32v-121c0-31-8-49-39-48C34-167 62-67 57 0H25l-1-190h30c1 10-1 24 2 32 11-22 29-35 61-36" id="v"/><g id="c"><use transform="matrix(0.07407407407407408,0,0,0.07407407407407408,0,0)" xlink:href="#r"/><use transform="matrix(0.07407407407407408,0,0,0.07407407407407408,5.851851851851853,0)" xlink:href="#v"/></g><path d="M59-47c-2 24 18 29 38 22v24C64 9 27 4 27-40v-127H5v-23h24l9-43h21v43h35v23H59v120" id="w"/><path d="M106-169C34-169 62-67 57 0H25v-261h32l-1 103c12-21 28-36 61-36 89 0 53 116 60 194h-32v-121c2-32-8-49-39-48" id="x"/><g id="d"><use transform="matrix(0.07407407407407408,0,0,0.07407407407407408,0,0)" xlink:href="#w"/><use transform="matrix(0.07407407407407408,0,0,0.07407407407407408,7.407407407407408,0)" xlink:href="#x"/><use transform="matrix(0.07407407407407408,0,0,0.07407407407407408,22.222222222222225,0)" xlink:href="#s"/></g><path d="M115-194c55 1 70 41 70 98S169 2 115 4C84 4 66-9 55-30l1 105H24l-1-265h31l2 30c10-21 28-34 59-34zm-8 174c40 0 45-34 45-75s-6-73-45-74c-42 0-51 32-51 76 0 43 10 73 51 73" id="y"/><path d="M24 0v-261h32V0H24" id="z"/><g id="e"><use transform="matrix(0.07407407407407408,0,0,0.07407407407407408,0,0)" xlink:href="#y"/><use transform="matrix(0.07407407407407408,0,0,0.07407407407407408,14.814814814814817,0)" xlink:href="#r"/><use transform="matrix(0.07407407407407408,0,0,0.07407407407407408,20.666666666666668,0)" xlink:href="#y"/><use transform="matrix(0.07407407407407408,0,0,0.07407407407407408,35.48148148148149,0)" xlink:href="#s"/><use transform="matrix(0.07407407407407408,0,0,0.07407407407407408,50.296296296296305,0)" xlink:href="#z"/><use transform="matrix(0.07407407407407408,0,0,0.07407407407407408,56.14814814814815,0)" xlink:href="#r"/><use transform="matrix(0.07407407407407408,0,0,0.07407407407407408,62.000000000000014,0)" xlink:href="#v"/><use transform="matrix(0.07407407407407408,0,0,0.07407407407407408,76.81481481481484,0)" xlink:href="#s"/></g><path d="M100-194c62-1 85 37 85 99 1 63-27 99-86 99S16-35 15-95c0-66 28-99 85-99zM99-20c44 1 53-31 53-75 0-43-8-75-51-75s-53 32-53 75 10 74 51 75" id="A"/><g id="f"><use transform="matrix(0.07407407407407408,0,0,0.07407407407407408,0,0)" xlink:href="#w"/><use transform="matrix(0.07407407407407408,0,0,0.07407407407407408,7.407407407407408,0)" xlink:href="#A"/></g><path d="M115-194c53 0 69 39 70 98 0 66-23 100-70 100C84 3 66-7 56-30L54 0H23l1-261h32v101c10-23 28-34 59-34zm-8 174c40 0 45-34 45-75 0-40-5-75-45-74-42 0-51 32-51 76 0 43 10 73 51 73" id="B"/><g id="g"><use transform="matrix(0.07407407407407408,0,0,0.07407407407407408,0,0)" xlink:href="#B"/><use transform="matrix(0.07407407407407408,0,0,0.07407407407407408,14.814814814814817,0)" xlink:href="#s"/></g><path d="M85-194c31 0 48 13 60 33l-1-100h32l1 261h-30c-2-10 0-23-3-31C134-8 116 4 85 4 32 4 16-35 15-94c0-66 23-100 70-100zm9 24c-40 0-46 34-46 75 0 40 6 74 45 74 42 0 51-32 51-76 0-42-9-74-50-73" id="C"/><path d="M206 0h-36l-40-164L89 0H53L-1-190h32L70-26l43-164h34l41 164 42-164h31" id="D"/><path d="M141-36C126-15 110 5 73 4 37 3 15-17 15-53c-1-64 63-63 125-63 3-35-9-54-41-54-24 1-41 7-42 31l-33-3c5-37 33-52 76-52 45 0 72 20 72 64v82c-1 20 7 32 28 27v20c-31 9-61-2-59-35zM48-53c0 20 12 33 32 33 41-3 63-29 60-74-43 2-92-5-92 41" id="E"/><g id="h"><use transform="matrix(0.07407407407407408,0,0,0.07407407407407408,0,0)" xlink:href="#C"/><use transform="matrix(0.07407407407407408,0,0,0.07407407407407408,14.814814814814817,0)" xlink:href="#A"/><use transform="matrix(0.07407407407407408,0,0,0.07407407407407408,29.629629629629633,0)" xlink:href="#D"/><use transform="matrix(0.07407407407407408,0,0,0.07407407407407408,48.814814814814824,0)" xlink:href="#v"/><use transform="matrix(0.07407407407407408,0,0,0.07407407407407408,63.62962962962964,0)" xlink:href="#z"/><use transform="matrix(0.07407407407407408,0,0,0.07407407407407408,69.4814814814815,0)" xlink:href="#A"/><use transform="matrix(0.07407407407407408,0,0,0.07407407407407408,84.2962962962963,0)" xlink:href="#E"/><use transform="matrix(0.07407407407407408,0,0,0.07407407407407408,99.11111111111111,0)" xlink:href="#C"/><use transform="matrix(0.07407407407407408,0,0,0.07407407407407408,113.92592592592592,0)" xlink:href="#s"/><use transform="matrix(0.07407407407407408,0,0,0.07407407407407408,128.74074074074073,0)" xlink:href="#C"/></g><path d="M135-143c-3-34-86-38-87 0 15 53 115 12 119 90S17 21 10-45l28-5c4 36 97 45 98 0-10-56-113-15-118-90-4-57 82-63 122-42 12 7 21 19 24 35" id="F"/><g id="i"><use transform="matrix(0.07407407407407408,0,0,0.07407407407407408,0,0)" xlink:href="#E"/><use transform="matrix(0.07407407407407408,0,0,0.07407407407407408,14.814814814814817,0)" xlink:href="#F"/></g><g id="j"><use transform="matrix(0.07407407407407408,0,0,0.07407407407407408,0,0)" xlink:href="#F"/><use transform="matrix(0.07407407407407408,0,0,0.07407407407407408,13.333333333333336,0)" xlink:href="#A"/><use transform="matrix(0.07407407407407408,0,0,0.07407407407407408,28.148148148148152,0)" xlink:href="#A"/><use transform="matrix(0.07407407407407408,0,0,0.07407407407407408,42.96296296296297,0)" xlink:href="#v"/></g><g id="k"><use transform="matrix(0.07407407407407408,0,0,0.07407407407407408,0,0)" xlink:href="#E"/><use transform="matrix(0.07407407407407408,0,0,0.07407407407407408,14.814814814814817,0)" xlink:href="#F"/></g><path d="M84 4C-5 8 30-112 23-190h32v120c0 31 7 50 39 49 72-2 45-101 50-169h31l1 190h-30c-1-10 1-25-2-33-11 22-28 36-60 37" id="G"/><path d="M16-82v-28h88v28H16" id="H"/><g id="l"><use transform="matrix(0.07407407407407408,0,0,0.07407407407407408,0,0)" xlink:href="#F"/><use transform="matrix(0.07407407407407408,0,0,0.07407407407407408,13.333333333333336,0)" xlink:href="#G"/><use transform="matrix(0.07407407407407408,0,0,0.07407407407407408,28.148148148148152,0)" xlink:href="#B"/><use transform="matrix(0.07407407407407408,0,0,0.07407407407407408,42.96296296296297,0)" xlink:href="#H"/><use transform="matrix(0.07407407407407408,0,0,0.07407407407407408,51.777777777777786,0)" xlink:href="#y"/><use transform="matrix(0.07407407407407408,0,0,0.07407407407407408,66.59259259259261,0)" xlink:href="#r"/><use transform="matrix(0.07407407407407408,0,0,0.07407407407407408,72.44444444444446,0)" xlink:href="#s"/><use transform="matrix(0.07407407407407408,0,0,0.07407407407407408,87.25925925925927,0)" xlink:href="#t"/><use transform="matrix(0.07407407407407408,0,0,0.07407407407407408,100.59259259259261,0)" xlink:href="#s"/></g><g id="m"><use transform="matrix(0.07407407407407408,0,0,0.07407407407407408,0,0)" xlink:href="#r"/><use transform="matrix(0.07407407407407408,0,0,0.07407407407407408,5.851851851851853,0)" xlink:href="#F"/></g><g id="n"><use transform="matrix(0.07407407407407408,0,0,0.07407407407407408,0,0)" xlink:href="#C"/><use transform="matrix(0.07407407407407408,0,0,0.07407407407407408,14.814814814814817,0)" xlink:href="#A"/><use transform="matrix(0.07407407407407408,0,0,0.07407407407407408,29.629629629629633,0)" xlink:href="#D"/><use transform="matrix(0.07407407407407408,0,0,0.07407407407407408,48.814814814814824,0)" xlink:href="#v"/><use transform="matrix(0.07407407407407408,0,0,0.07407407407407408,63.62962962962964,0)" xlink:href="#z"/><use transform="matrix(0.07407407407407408,0,0,0.07407407407407408,69.4814814814815,0)" xlink:href="#A"/><use transform="matrix(0.07407407407407408,0,0,0.07407407407407408,84.2962962962963,0)" xlink:href="#E"/><use transform="matrix(0.07407407407407408,0,0,0.07407407407407408,99.11111111111111,0)" xlink:href="#C"/><use transform="matrix(0.07407407407407408,0,0,0.07407407407407408,113.92592592592592,0)" xlink:href="#s"/><use transform="matrix(0.07407407407407408,0,0,0.07407407407407408,128.74074074074073,0)" xlink:href="#C"/></g><path d="M185-189c-5-48-123-54-124 2 14 75 158 14 163 119 3 78-121 87-175 55-17-10-28-26-33-46l33-7c5 56 141 63 141-1 0-78-155-14-162-118-5-82 145-84 179-34 5 7 8 16 11 25" id="I"/><g id="o"><use transform="matrix(0.07407407407407408,0,0,0.07407407407407408,0,0)" xlink:href="#I"/><use transform="matrix(0.07407407407407408,0,0,0.07407407407407408,17.77777777777778,0)" xlink:href="#G"/><use transform="matrix(0.07407407407407408,0,0,0.07407407407407408,32.592592592592595,0)" xlink:href="#B"/><use transform="matrix(0.07407407407407408,0,0,0.07407407407407408,47.40740740740741,0)" xlink:href="#H"/><use transform="matrix(0.07407407407407408,0,0,0.07407407407407408,56.22222222222223,0)" xlink:href="#y"/><use transform="matrix(0.07407407407407408,0,0,0.07407407407407408,71.03703703703704,0)" xlink:href="#r"/><use transform="matrix(0.07407407407407408,0,0,0.07407407407407408,76.88888888888889,0)" xlink:href="#s"/><use transform="matrix(0.07407407407407408,0,0,0.07407407407407408,91.7037037037037,0)" xlink:href="#t"/><use transform="matrix(0.07407407407407408,0,0,0.07407407407407408,105.03703703703704,0)" xlink:href="#s"/></g><path d="M30-248c118-7 216 8 213 122C240-48 200 0 122 0H30v-248zM63-27c89 8 146-16 146-99s-60-101-146-95v194" id="J"/><g id="p"><use transform="matrix(0.07407407407407408,0,0,0.07407407407407408,0,0)" xlink:href="#J"/><use transform="matrix(0.07407407407407408,0,0,0.07407407407407408,19.185185185185187,0)" xlink:href="#A"/><use transform="matrix(0.07407407407407408,0,0,0.07407407407407408,34,0)" xlink:href="#D"/><use transform="matrix(0.07407407407407408,0,0,0.07407407407407408,53.18518518518519,0)" xlink:href="#v"/><use transform="matrix(0.07407407407407408,0,0,0.07407407407407408,68,0)" xlink:href="#z"/><use transform="matrix(0.07407407407407408,0,0,0.07407407407407408,73.85185185185185,0)" xlink:href="#A"/><use transform="matrix(0.07407407407407408,0,0,0.07407407407407408,88.66666666666666,0)" xlink:href="#E"/><use transform="matrix(0.07407407407407408,0,0,0.07407407407407408,103.48148148148147,0)" xlink:href="#C"/><use transform="matrix(0.07407407407407408,0,0,0.07407407407407408,118.29629629629628,0)" xlink:href="#s"/><use transform="matrix(0.07407407407407408,0,0,0.07407407407407408,133.1111111111111,0)" xlink:href="#C"/></g></defs></g></svg>