<svg xmlns="http://www.w3.org/2000/svg" xmlns:xlink="http://www.w3.org/1999/xlink" xmlns:lucid="lucid" width="1320" height="640"><g transform="translate(-140 -80)" lucid:page-tab-id="0_0"><path d="M0 0h1870.4v1323.2H0z" fill="#fff"/><path d="M780 640h240v60H780z" fill="none"/><use xlink:href="#a" transform="matrix(1,0,0,1,780,640) translate(98.62962962962962 35.333333333333336)"/><path d="M740 100h240v60H740z" fill="none"/><use xlink:href="#b" transform="matrix(1,0,0,1,740,100) translate(23.074074074074062 21.333333333333336)"/><use xlink:href="#c" transform="matrix(1,0,0,1,740,100) translate(122.18518518518518 21.333333333333336)"/><use xlink:href="#d" transform="matrix(1,0,0,1,740,100) translate(6.074074074074076 53.333333333333336)"/><use xlink:href="#e" transform="matrix(1,0,0,1,740,100) translate(139.18518518518516 53.333333333333336)"/><path d="M360 580c0 53.85-44.77 97.5-100 97.5S160 633.85 160 580s44.77-97.5 100-97.5 100 43.65 100 97.5z" stroke="#000" stroke-width="2" fill="#fff"/><use xlink:href="#f" transform="matrix(1,0,0,1,165,487.5) translate(17.01851851851852 49.833333333333336)"/><use xlink:href="#g" transform="matrix(1,0,0,1,165,487.5) translate(86.64814814814815 49.833333333333336)"/><use xlink:href="#h" transform="matrix(1,0,0,1,165,487.5) translate(48.12962962962962 81.83333333333334)"/><use xlink:href="#i" transform="matrix(1,0,0,1,165,487.5) translate(34.833333333333336 113.83333333333334)"/><use xlink:href="#j" transform="matrix(1,0,0,1,165,487.5) translate(48.12962962962962 145.83333333333334)"/><path d="M362 580h58.5" stroke="#000" stroke-width="2" fill="none"/><path d="M362.03 581h-1.05l.02-1v-1h1.03z"/><path d="M435.76 580l-14.26 4.64v-9.28z" stroke="#000" stroke-width="2"/><path d="M380 220c0 33.14-26.86 60-60 60s-60-26.86-60-60 26.86-60 60-60 60 26.86 60 60z" stroke="#000" stroke-width="2" fill="#fff"/><use xlink:href="#k" transform="matrix(1,0,0,1,265,165) translate(26.888888888888886 60.333333333333336)"/><path d="M540 220c0 33.14-26.86 60-60 60s-60-26.86-60-60 26.86-60 60-60 60 26.86 60 60z" stroke="#000" stroke-width="2" fill="#fff"/><use xlink:href="#k" transform="matrix(1,0,0,1,425,165) translate(26.888888888888886 60.333333333333336)"/><path d="M740 220c0 33.14-26.86 60-60 60s-60-26.86-60-60 26.86-60 60-60 60 26.86 60 60z" stroke="#000" stroke-width="2" fill="#fff"/><use xlink:href="#k" transform="matrix(1,0,0,1,625,165) translate(26.888888888888886 60.333333333333336)"/><path d="M920 220c0 33.14-26.86 60-60 60s-60-26.86-60-60 26.86-60 60-60 60 26.86 60 60z" stroke="#000" stroke-width="2" fill="#ff8f80"/><use xlink:href="#l" transform="matrix(1,0,0,1,805,165) translate(32.51851851851852 60.333333333333336)"/><path d="M440 520h960v120H440z" stroke="#000" stroke-width="2" fill="#fff"/><path d="M440 520h160v120H440z" stroke="#000" stroke-width="2" fill="#0c7cba"/><use xlink:href="#m" transform="matrix(1,0,0,1,445,525) translate(41.703703703703695 60.333333333333336)"/><path d="M600 520h160v120H600z" stroke="#000" stroke-width="2" fill="#3aa6dd"/><use xlink:href="#m" transform="matrix(1,0,0,1,605,525) translate(41.703703703703695 60.333333333333336)"/><path d="M1240 520h160v120h-160z" stroke="#000" stroke-width="2" fill="#fcc438"/><use xlink:href="#m" transform="matrix(1,0,0,1,1245,525) translate(41.703703703703695 60.333333333333336)"/><path d="M1080 520h160v120h-160z" stroke="#000" stroke-width="2" fill="#7ab648"/><use xlink:href="#m" transform="matrix(1,0,0,1,1085,525) translate(41.703703703703695 60.333333333333336)"/><path d="M760 520h160v120H760z" stroke="#000" stroke-width="2" fill="#19967d"/><use xlink:href="#m" transform="matrix(1,0,0,1,765,525) translate(41.703703703703695 60.333333333333336)"/><path d="M1100 220c0 33.14-26.86 60-60 60s-60-26.86-60-60 26.86-60 60-60 60 26.86 60 60z" stroke="#000" stroke-width="2" fill="#fff"/><use xlink:href="#k" transform="matrix(1,0,0,1,985,165) translate(26.888888888888886 60.333333333333336)"/><path d="M1280 220c0 33.14-26.86 60-60 60s-60-26.86-60-60 26.86-60 60-60 60 26.86 60 60z" stroke="#000" stroke-width="2" fill="#fff"/><use xlink:href="#k" transform="matrix(1,0,0,1,1165,165) translate(26.888888888888886 60.333333333333336)"/><path d="M1440 220c0 33.14-26.86 60-60 60s-60-26.86-60-60 26.86-60 60-60 60 26.86 60 60z" stroke="#000" stroke-width="2" fill="#fff"/><use xlink:href="#k" transform="matrix(1,0,0,1,1325,165) translate(26.888888888888886 60.333333333333336)"/><path d="M320.68 281.73l208.05 223.72" stroke="#000" stroke-width="2" fill="none"/><path d="M320 281l1.32-.05.1.12-1.45 1.36-1.4-1.5z"/><path d="M539.13 516.63l-13.1-7.3 6.78-6.3z" stroke="#000" stroke-width="2"/><path d="M320.83 281.55L664.57 508.8" stroke="#000" stroke-width="2" fill="none"/><path d="M320 281l1.26-.04-.96 1.44-2.23-1.48z"/><path d="M677.3 517.22l-14.46-4 5.12-7.74z" stroke="#000" stroke-width="2"/><path d="M920 520h160v120H920z" stroke="#000" stroke-width="2" fill="#de5f85"/><use xlink:href="#m" transform="matrix(1,0,0,1,925,525) translate(41.703703703703695 60.333333333333336)"/><path d="M320.9 281.42l503.6 229.9" stroke="#000" stroke-width="2" fill="none"/><path d="M320 281l1.15-.04-.63 1.38-3.17-1.45zM838.4 517.66l-14.9-1.7 3.84-8.45z"/><path d="M841.33 519L822 516.8l5-10.95zm-16.36-3.9l10.48 1.2-7.77-7.12z"/><path d="M320.97 281.23L1298 514.7" stroke="#000" stroke-width="2" fill="none"/><path d="M320 281l1.06-.04-.3 1.25-3.9-.92.1-.4zM1312.85 518.25l-9.43.75h-5.4l2.03-8.58z"/><path d="M1316 519h-19.02l2.42-10.15zm-16.8-.67l10.5-.83-9-5.5z"/><path d="M480.24 281.97l55.24 219.1" stroke="#000" stroke-width="2" fill="none"/><path d="M480 281l1.02-.04.2.8-1.94.48-.32-1.28z"/><path d="M539.2 515.86l-7.97-12.7 9-2.26z" stroke="#000" stroke-width="2"/><path d="M480.64 281.77L668.1 504.84" stroke="#000" stroke-width="2" fill="none"/><path d="M480 281l1.27-.04.16.18-1.54 1.3-1.25-1.5z"/><path d="M677.92 516.52l-12.73-7.94 7.1-5.96z" stroke="#000" stroke-width="2"/><path d="M480.84 281.55l345.04 227.27" stroke="#000" stroke-width="2" fill="none"/><path d="M480 281l1.26-.04-.95 1.44-2.24-1.48z"/><path d="M838.63 517.22l-14.46-3.98 5.1-7.74z" stroke="#000" stroke-width="2"/><path d="M480.94 281.33l668.25 231.6" stroke="#000" stroke-width="2" fill="none"/><path d="M480 281l1.1-.04-.46 1.32-3.8-1.32.03-.1zM1163.6 517.94l-15-.3 3.05-8.75z"/><path d="M1166.67 519l-19.45-.38 3.93-11.36zm-16.66-2.32l10.55.2-8.4-6.36z"/><path d="M680 282v218.5" stroke="#000" stroke-width="2" fill="none"/><path d="M680 281l1-.03v1.06h-2v-1.07z"/><path d="M680 515.76l-4.64-14.26h9.28z" stroke="#000" stroke-width="2"/><path d="M680.56 281.83l150.4 221.86" stroke="#000" stroke-width="2" fill="none"/><path d="M680 281l1.18-.04.22.33-1.65 1.1-1-1.45z"/><path d="M839.52 516.32l-11.84-9.2 7.67-5.2z" stroke="#000" stroke-width="2"/><path d="M680.9 281.44l469.15 229.43" stroke="#000" stroke-width="2" fill="none"/><path d="M680 281l1.16-.04-.68 1.4-2.97-1.46zM1163.76 517.58l-14.85-2.1 4.08-8.33z"/><path d="M1166.67 519l-19.27-2.73 5.3-10.8zm-16.26-4.32l10.45 1.48-7.58-7.34z"/><path d="M1040.47 281.88l118.77 220.83" stroke="#000" stroke-width="2" fill="none"/><path d="M1040 281l1.1-.04.27.47-1.76.95-.76-1.43z"/><path d="M1166.47 516.15l-10.84-10.37 8.16-4.4z" stroke="#000" stroke-width="2"/><path d="M1040.76 281.65L1302 506.92" stroke="#000" stroke-width="2" fill="none"/><path d="M1040 281l1.4-.05-1.28 1.48-1.73-1.5z"/><path d="M1313.55 516.9l-13.83-5.82 6.05-7.02z" stroke="#000" stroke-width="2"/><path d="M1039.17 281.55L695.43 508.8" stroke="#000" stroke-width="2" fill="none"/><path d="M1039.7 282.4l-.96-1.45 1.26.05 1.92-.07z"/><path d="M682.7 517.22l9.34-11.74 5.12 7.73z" stroke="#000" stroke-width="2"/><path d="M1039.1 281.43L556.7 511.05" stroke="#000" stroke-width="2" fill="none"/><path d="M1039.5 282.34l-.66-1.4 1.16.06 2.5-.1zM557.8 515.66l-14.88 1.95 10.9-10.3z"/><path d="M559.3 516.48L540 519l14.12-13.38zm-13.46-.26l10.46-1.37-2.8-5.88z"/><path d="M1219.78 281.98l-49.07 218.97" stroke="#000" stroke-width="2" fill="none"/><path d="M1220 281l1.03-.04-.28 1.26-1.95-.44.18-.82z"/><path d="M1167.37 515.84l-1.4-14.93 9.05 2.04z" stroke="#000" stroke-width="2"/><path d="M1220.37 281.93l88.7 219.9" stroke="#000" stroke-width="2" fill="none"/><path d="M1220 281l1.06-.04.25.62-1.84.75-.56-1.37z"/><path d="M1314.8 516l-9.65-11.5 8.6-3.47z" stroke="#000" stroke-width="2"/><path d="M1219.08 281.4L696.93 511.54" stroke="#000" stroke-width="2" fill="none"/><path d="M1219.46 282.33l-.6-1.38 1.14.05 2.7-.1zM697.88 516.18l-14.92 1.5 11.2-9.98z"/><path d="M699.35 517.04L680 519l14.5-12.96zm-13.43-.65l10.5-1.07-2.63-5.97z"/><path d="M1379.74 281.97l-58.94 219.16" stroke="#000" stroke-width="2" fill="none"/><path d="M1380 281l1.05-.04-.35 1.3-1.93-.53.2-.77z"/><path d="M1316.84 515.87l-.77-14.98 8.95 2.4z" stroke="#000" stroke-width="2"/><path d="M1379.33 281.75l-200.3 223.47" stroke="#000" stroke-width="2" fill="none"/><path d="M1380 281l1.4-.05-1.34 1.48-1.5-1.33.15-.15z"/><path d="M1168.83 516.6l6.07-13.73 6.9 6.2z" stroke="#000" stroke-width="2"/><path d="M1379.1 281.4L858.25 511.52" stroke="#000" stroke-width="2" fill="none"/><path d="M1379.47 282.33l-.6-1.38 1.13.05 2.7-.1zM859.22 516.17l-14.93 1.52 11.17-10z"/><path d="M860.7 517.02L841.32 519l14.5-12.98zm-13.45-.64l10.5-1.07-2.64-5.95z"/><path d="M1379.04 281.27l-819.9 232.68" stroke="#000" stroke-width="2" fill="none"/><path d="M1383.16 281.14l-3.87 1.1-.38-1.28 1.08.04 3.1-.1zM559.44 518.68l-15-.56 12.46-8.36z"/><path d="M560.57 519h-19.24l16.16-10.83zm-13-1.77l10.53.4-1.78-6.27z"/><path d="M861.52 283.6l124.8 212.15" stroke="#c92d39" stroke-width="6" fill="none"/><path d="M860 281l3.4-.12.75 1.25-5.18 3.04-2.54-4.32z" fill="#c92d39"/><path d="M995.08 510.63l-11.23-9.94 8-4.7z" stroke="#c92d39" stroke-width="6" fill="#c92d39"/><defs><path d="M63-220v92h138v28H63V0H30v-248h175v28H63" id="n"/><path d="M24-231v-30h32v30H24zM24 0v-190h32V0H24" id="o"/><path d="M24 0v-261h32V0H24" id="p"/><path d="M100-194c63 0 86 42 84 106H49c0 40 14 67 53 68 26 1 43-12 49-29l28 8c-11 28-37 45-77 45C44 4 14-33 15-96c1-61 26-98 85-98zm52 81c6-60-76-77-97-28-3 7-6 17-6 28h103" id="q"/><g id="a"><use transform="matrix(0.07407407407407408,0,0,0.07407407407407408,0,0)" xlink:href="#n"/><use transform="matrix(0.07407407407407408,0,0,0.07407407407407408,16.222222222222225,0)" xlink:href="#o"/><use transform="matrix(0.07407407407407408,0,0,0.07407407407407408,22.074074074074076,0)" xlink:href="#p"/><use transform="matrix(0.07407407407407408,0,0,0.07407407407407408,27.92592592592593,0)" xlink:href="#q"/></g><path d="M232-93c-1 65-40 97-104 97C67 4 28-28 28-90v-158h33c8 89-33 224 67 224 102 0 64-133 71-224h33v155" id="r"/><path d="M115-194c55 1 70 41 70 98S169 2 115 4C84 4 66-9 55-30l1 105H24l-1-265h31l2 30c10-21 28-34 59-34zm-8 174c40 0 45-34 45-75s-6-73-45-74c-42 0-51 32-51 76 0 43 10 73 51 73" id="s"/><path d="M100-194c62-1 85 37 85 99 1 63-27 99-86 99S16-35 15-95c0-66 28-99 85-99zM99-20c44 1 53-31 53-75 0-43-8-75-51-75s-53 32-53 75 10 74 51 75" id="t"/><path d="M141-36C126-15 110 5 73 4 37 3 15-17 15-53c-1-64 63-63 125-63 3-35-9-54-41-54-24 1-41 7-42 31l-33-3c5-37 33-52 76-52 45 0 72 20 72 64v82c-1 20 7 32 28 27v20c-31 9-61-2-59-35zM48-53c0 20 12 33 32 33 41-3 63-29 60-74-43 2-92-5-92 41" id="u"/><path d="M85-194c31 0 48 13 60 33l-1-100h32l1 261h-30c-2-10 0-23-3-31C134-8 116 4 85 4 32 4 16-35 15-94c0-66 23-100 70-100zm9 24c-40 0-46 34-46 75 0 40 6 74 45 74 42 0 51-32 51-76 0-42-9-74-50-73" id="v"/><path d="M33-154v-36h34v36H33zM33 0v-36h34V0H33" id="w"/><g id="b"><use transform="matrix(0.07407407407407408,0,0,0.07407407407407408,0,0)" xlink:href="#r"/><use transform="matrix(0.07407407407407408,0,0,0.07407407407407408,19.185185185185187,0)" xlink:href="#s"/><use transform="matrix(0.07407407407407408,0,0,0.07407407407407408,34,0)" xlink:href="#p"/><use transform="matrix(0.07407407407407408,0,0,0.07407407407407408,39.851851851851855,0)" xlink:href="#t"/><use transform="matrix(0.07407407407407408,0,0,0.07407407407407408,54.66666666666667,0)" xlink:href="#u"/><use transform="matrix(0.07407407407407408,0,0,0.07407407407407408,69.4814814814815,0)" xlink:href="#v"/><use transform="matrix(0.07407407407407408,0,0,0.07407407407407408,84.2962962962963,0)" xlink:href="#w"/></g><path d="M54-142c48-35 137-8 131 61C196 18 31 33 14-55l32-4c7 23 22 37 52 37 35-1 51-22 54-58 4-55-73-65-99-34H22l8-134h141v27H59" id="x"/><path d="M101-251c68 0 85 55 85 127S166 4 100 4C33 4 14-52 14-124c0-73 17-127 87-127zm-1 229c47 0 54-49 54-102s-4-102-53-102c-51 0-55 48-55 102 0 53 5 102 54 102" id="y"/><path d="M210-169c-67 3-38 105-44 169h-31v-121c0-29-5-50-35-48C34-165 62-65 56 0H25l-1-190h30c1 10-1 24 2 32 10-44 99-50 107 0 11-21 27-35 58-36 85-2 47 119 55 194h-31v-121c0-29-5-49-35-48" id="z"/><path d="M115-194c53 0 69 39 70 98 0 66-23 100-70 100C84 3 66-7 56-30L54 0H23l1-261h32v101c10-23 28-34 59-34zm-8 174c40 0 45-34 45-75 0-40-5-75-45-74-42 0-51 32-51 76 0 43 10 73 51 73" id="A"/><path d="M135-143c-3-34-86-38-87 0 15 53 115 12 119 90S17 21 10-45l28-5c4 36 97 45 98 0-10-56-113-15-118-90-4-57 82-63 122-42 12 7 21 19 24 35" id="B"/><g id="c"><use transform="matrix(0.07407407407407408,0,0,0.07407407407407408,0,0)" xlink:href="#x"/><use transform="matrix(0.07407407407407408,0,0,0.07407407407407408,14.814814814814817,0)" xlink:href="#y"/><use transform="matrix(0.07407407407407408,0,0,0.07407407407407408,29.629629629629633,0)" xlink:href="#z"/><use transform="matrix(0.07407407407407408,0,0,0.07407407407407408,51.777777777777786,0)" xlink:href="#A"/><use transform="matrix(0.07407407407407408,0,0,0.07407407407407408,66.59259259259261,0)" xlink:href="#s"/><use transform="matrix(0.07407407407407408,0,0,0.07407407407407408,81.40740740740742,0)" xlink:href="#B"/></g><path d="M30-248c118-7 216 8 213 122C240-48 200 0 122 0H30v-248zM63-27c89 8 146-16 146-99s-60-101-146-95v194" id="C"/><path d="M206 0h-36l-40-164L89 0H53L-1-190h32L70-26l43-164h34l41 164 42-164h31" id="D"/><path d="M117-194c89-4 53 116 60 194h-32v-121c0-31-8-49-39-48C34-167 62-67 57 0H25l-1-190h30c1 10-1 24 2 32 11-22 29-35 61-36" id="E"/><g id="d"><use transform="matrix(0.07407407407407408,0,0,0.07407407407407408,0,0)" xlink:href="#C"/><use transform="matrix(0.07407407407407408,0,0,0.07407407407407408,19.185185185185187,0)" xlink:href="#t"/><use transform="matrix(0.07407407407407408,0,0,0.07407407407407408,34,0)" xlink:href="#D"/><use transform="matrix(0.07407407407407408,0,0,0.07407407407407408,53.18518518518519,0)" xlink:href="#E"/><use transform="matrix(0.07407407407407408,0,0,0.07407407407407408,68,0)" xlink:href="#p"/><use transform="matrix(0.07407407407407408,0,0,0.07407407407407408,73.85185185185185,0)" xlink:href="#t"/><use transform="matrix(0.07407407407407408,0,0,0.07407407407407408,88.66666666666666,0)" xlink:href="#u"/><use transform="matrix(0.07407407407407408,0,0,0.07407407407407408,103.48148148148147,0)" xlink:href="#v"/><use transform="matrix(0.07407407407407408,0,0,0.07407407407407408,118.29629629629628,0)" xlink:href="#w"/></g><g id="e"><use transform="matrix(0.07407407407407408,0,0,0.07407407407407408,0,0)" xlink:href="#x"/><use transform="matrix(0.07407407407407408,0,0,0.07407407407407408,14.814814814814817,0)" xlink:href="#y"/><use transform="matrix(0.07407407407407408,0,0,0.07407407407407408,29.629629629629633,0)" xlink:href="#z"/><use transform="matrix(0.07407407407407408,0,0,0.07407407407407408,51.777777777777786,0)" xlink:href="#A"/><use transform="matrix(0.07407407407407408,0,0,0.07407407407407408,66.59259259259261,0)" xlink:href="#s"/><use transform="matrix(0.07407407407407408,0,0,0.07407407407407408,81.40740740740742,0)" xlink:href="#B"/></g><path d="M185-189c-5-48-123-54-124 2 14 75 158 14 163 119 3 78-121 87-175 55-17-10-28-26-33-46l33-7c5 56 141 63 141-1 0-78-155-14-162-118-5-82 145-84 179-34 5 7 8 16 11 25" id="F"/><g id="f"><use transform="matrix(0.07407407407407408,0,0,0.07407407407407408,0,0)" xlink:href="#F"/><use transform="matrix(0.07407407407407408,0,0,0.07407407407407408,17.77777777777778,0)" xlink:href="#q"/><use transform="matrix(0.07407407407407408,0,0,0.07407407407407408,32.592592592592595,0)" xlink:href="#q"/><use transform="matrix(0.07407407407407408,0,0,0.07407407407407408,47.40740740740741,0)" xlink:href="#v"/></g><path d="M84 4C-5 8 30-112 23-190h32v120c0 31 7 50 39 49 72-2 45-101 50-169h31l1 190h-30c-1-10 1-25-2-33-11 22-28 36-60 37" id="G"/><g id="g"><use transform="matrix(0.07407407407407408,0,0,0.07407407407407408,0,0)" xlink:href="#G"/><use transform="matrix(0.07407407407407408,0,0,0.07407407407407408,14.814814814814817,0)" xlink:href="#s"/><use transform="matrix(0.07407407407407408,0,0,0.07407407407407408,29.629629629629633,0)" xlink:href="#p"/><use transform="matrix(0.07407407407407408,0,0,0.07407407407407408,35.48148148148149,0)" xlink:href="#t"/><use transform="matrix(0.07407407407407408,0,0,0.07407407407407408,50.296296296296305,0)" xlink:href="#u"/><use transform="matrix(0.07407407407407408,0,0,0.07407407407407408,65.11111111111111,0)" xlink:href="#v"/><use transform="matrix(0.07407407407407408,0,0,0.07407407407407408,79.92592592592592,0)" xlink:href="#w"/></g><path d="M101-251c82-7 93 87 43 132L82-64C71-53 59-42 53-27h129V0H18c2-99 128-94 128-182 0-28-16-43-45-43s-46 15-49 41l-32-3c6-41 34-60 81-64" id="H"/><g id="h"><use transform="matrix(0.07407407407407408,0,0,0.07407407407407408,0,0)" xlink:href="#H"/><use transform="matrix(0.07407407407407408,0,0,0.07407407407407408,14.814814814814817,0)" xlink:href="#y"/><use transform="matrix(0.07407407407407408,0,0,0.07407407407407408,29.629629629629633,0)" xlink:href="#z"/><use transform="matrix(0.07407407407407408,0,0,0.07407407407407408,51.777777777777786,0)" xlink:href="#A"/><use transform="matrix(0.07407407407407408,0,0,0.07407407407407408,66.59259259259261,0)" xlink:href="#s"/><use transform="matrix(0.07407407407407408,0,0,0.07407407407407408,81.40740740740742,0)" xlink:href="#B"/></g><g id="i"><use transform="matrix(0.07407407407407408,0,0,0.07407407407407408,0,0)" xlink:href="#v"/><use transform="matrix(0.07407407407407408,0,0,0.07407407407407408,14.814814814814817,0)" xlink:href="#t"/><use transform="matrix(0.07407407407407408,0,0,0.07407407407407408,29.629629629629633,0)" xlink:href="#D"/><use transform="matrix(0.07407407407407408,0,0,0.07407407407407408,48.814814814814824,0)" xlink:href="#E"/><use transform="matrix(0.07407407407407408,0,0,0.07407407407407408,63.62962962962964,0)" xlink:href="#p"/><use transform="matrix(0.07407407407407408,0,0,0.07407407407407408,69.4814814814815,0)" xlink:href="#t"/><use transform="matrix(0.07407407407407408,0,0,0.07407407407407408,84.2962962962963,0)" xlink:href="#u"/><use transform="matrix(0.07407407407407408,0,0,0.07407407407407408,99.11111111111111,0)" xlink:href="#v"/><use transform="matrix(0.07407407407407408,0,0,0.07407407407407408,113.92592592592592,0)" xlink:href="#w"/></g><g id="j"><use transform="matrix(0.07407407407407408,0,0,0.07407407407407408,0,0)" xlink:href="#H"/><use transform="matrix(0.07407407407407408,0,0,0.07407407407407408,14.814814814814817,0)" xlink:href="#y"/><use transform="matrix(0.07407407407407408,0,0,0.07407407407407408,29.629629629629633,0)" xlink:href="#z"/><use transform="matrix(0.07407407407407408,0,0,0.07407407407407408,51.777777777777786,0)" xlink:href="#A"/><use transform="matrix(0.07407407407407408,0,0,0.07407407407407408,66.59259259259261,0)" xlink:href="#s"/><use transform="matrix(0.07407407407407408,0,0,0.07407407407407408,81.40740740740742,0)" xlink:href="#B"/></g><path d="M30-248c87 1 191-15 191 75 0 78-77 80-158 76V0H30v-248zm33 125c57 0 124 11 124-50 0-59-68-47-124-48v98" id="I"/><path d="M114-163C36-179 61-72 57 0H25l-1-190h30c1 12-1 29 2 39 6-27 23-49 58-41v29" id="J"/><g id="k"><use transform="matrix(0.07407407407407408,0,0,0.07407407407407408,0,0)" xlink:href="#I"/><use transform="matrix(0.07407407407407408,0,0,0.07407407407407408,17.77777777777778,0)" xlink:href="#q"/><use transform="matrix(0.07407407407407408,0,0,0.07407407407407408,32.592592592592595,0)" xlink:href="#q"/><use transform="matrix(0.07407407407407408,0,0,0.07407407407407408,47.40740740740741,0)" xlink:href="#J"/></g><path d="M137-103V0h-34v-103L8-248h37l75 118 75-118h37" id="K"/><g id="l"><use transform="matrix(0.07407407407407408,0,0,0.07407407407407408,0,0)" xlink:href="#K"/><use transform="matrix(0.07407407407407408,0,0,0.07407407407407408,15.333333333333334,0)" xlink:href="#t"/><use transform="matrix(0.07407407407407408,0,0,0.07407407407407408,30.148148148148152,0)" xlink:href="#G"/></g><path d="M96-169c-40 0-48 33-48 73s9 75 48 75c24 0 41-14 43-38l32 2c-6 37-31 61-74 61-59 0-76-41-82-99-10-93 101-131 147-64 4 7 5 14 7 22l-32 3c-4-21-16-35-41-35" id="L"/><g id="m"><use transform="matrix(0.07407407407407408,0,0,0.07407407407407408,0,0)" xlink:href="#I"/><use transform="matrix(0.07407407407407408,0,0,0.07407407407407408,17.77777777777778,0)" xlink:href="#o"/><use transform="matrix(0.07407407407407408,0,0,0.07407407407407408,23.629629629629633,0)" xlink:href="#q"/><use transform="matrix(0.07407407407407408,0,0,0.07407407407407408,38.44444444444445,0)" xlink:href="#L"/><use transform="matrix(0.07407407407407408,0,0,0.07407407407407408,51.777777777777786,0)" xlink:href="#q"/></g></defs></g></svg>