<svg xmlns="http://www.w3.org/2000/svg" xmlns:xlink="http://www.w3.org/1999/xlink" xmlns:lucid="lucid" width="1598.4" height="434.33"><g transform="translate(-260 -159)" lucid:page-tab-id="0_0"><path d="M0 0h1870.4v1323.2H0z" fill="#fff"/><path d="M520 180h240v60H520z" fill="none"/><use xlink:href="#a" transform="matrix(1,0,0,1,520,180) translate(-35.37037037037038 53.33333333333334)"/><path d="M520 320h240v60H520z" fill="none"/><use xlink:href="#b" transform="matrix(1,0,0,1,520,320) translate(10.895061728395063 24.888888888888893)"/><use xlink:href="#c" transform="matrix(1,0,0,1,520,320) translate(87.46296296296296 24.888888888888893)"/><use xlink:href="#d" transform="matrix(1,0,0,1,520,320) translate(104.74691358024691 24.888888888888893)"/><use xlink:href="#e" transform="matrix(1,0,0,1,520,320) translate(180.7962962962963 24.888888888888893)"/><use xlink:href="#f" transform="matrix(1,0,0,1,520,320) translate(68.75308641975309 62.222222222222236)"/><path d="M456.8 494.08v-83.16c0-4.08-3.67-10.92-8.3-10.92h-144c-4.62 0-9.06 6.84-9.06 10.92v83.16c-16.2 17.28-15.44 17.28-15.44 17.28 0 4.92 4.44 8.64 10.23 8.64h172.55c5.8 0 10.23-4.08 10.23-8.64l-16.2-17.28zM389.8 512.8h-30.1c-1.55 0-3.1-.72-3.1-1.44l3.48-5.64c0-.72 1.16-1.2 2.7-1.2h23.93c1.16 0 2.32.48 2.32 1.2l3.86 5.64c0 1.08-1.53 1.44-3.08 1.44zm59.83-19.2H302.58v-81.96c0-1.92 1.93-4.56 4.06-4.56H446c2.1 0 3.65 2.64 3.65 4.56v81.96z" stroke="#000" stroke-opacity="0"/><use xlink:href="#g" transform="matrix(1,0,0,1,250,529) translate(99.5 14.4)"/><path d="M996.8 494.08v-83.16c0-4.08-3.67-10.92-8.3-10.92h-144c-4.62 0-9.06 6.84-9.06 10.92v83.16c-16.2 17.28-15.44 17.28-15.44 17.28 0 4.92 4.44 8.64 10.23 8.64h172.55c5.8 0 10.23-4.08 10.23-8.64l-16.2-17.28zM929.8 512.8h-30.1c-1.55 0-3.1-.72-3.1-1.44l3.48-5.64c0-.72 1.16-1.2 2.7-1.2h23.93c1.16 0 2.32.48 2.32 1.2l3.86 5.64c0 1.08-1.53 1.44-3.08 1.44zm59.83-19.2H842.58v-81.96c0-1.92 1.93-4.56 4.06-4.56H986c2.1 0 3.65 2.64 3.65 4.56v81.96z" stroke="#000" stroke-opacity="0" fill="#3aa6dd"/><use xlink:href="#h" transform="matrix(1,0,0,1,790,529) translate(69.5 14.4)"/><path d="M457.8 480h359.14" stroke="#494949" stroke-width="2" fill="none"/><path d="M457.82 481h-1.03v-2h1.02z" fill="#494949"/><path d="M832.2 480l-14.26 4.64v-9.28z" stroke="#494949" stroke-width="2" fill="#494949"/><path d="M834.44 411.33l-359.17-.54" stroke="#494949" stroke-width="2" fill="none"/><path d="M835.53 410.33l-.1.6v1.4h-1.02l.02-2z" fill="#494949"/><path d="M460 410.77l14.28-4.6v9.26z" stroke="#494949" stroke-width="2" fill="#494949"/><path d="M540 500h240v60H540z" fill="none"/><use xlink:href="#i" transform="matrix(1,0,0,1,540,500) translate(12.623456790123441 24.888888888888893)"/><use xlink:href="#j" transform="matrix(1,0,0,1,540,500) translate(106.4753086419753 24.888888888888893)"/><use xlink:href="#k" transform="matrix(1,0,0,1,540,500) translate(177.2530864197531 24.888888888888893)"/><use xlink:href="#l" transform="matrix(1,0,0,1,540,500) translate(97.22839506172839 62.222222222222236)"/><path d="M1345.4 320h240v60h-240z" fill="none"/><use xlink:href="#b" transform="matrix(1,0,0,1,1345.3925851451552,320) translate(10.895061728395063 24.888888888888893)"/><use xlink:href="#c" transform="matrix(1,0,0,1,1345.3925851451552,320) translate(87.46296296296296 24.888888888888893)"/><use xlink:href="#d" transform="matrix(1,0,0,1,1345.3925851451552,320) translate(104.74691358024691 24.888888888888893)"/><use xlink:href="#e" transform="matrix(1,0,0,1,1345.3925851451552,320) translate(180.7962962962963 24.888888888888893)"/><use xlink:href="#f" transform="matrix(1,0,0,1,1345.3925851451552,320) translate(68.75308641975309 62.222222222222236)"/><path d="M1258.1 180h414.6v60h-414.6z" fill="none"/><g><use xlink:href="#m" transform="matrix(1,0,0,1,1258.0888777177329,180) translate(7.6851851851851904 53.33333333333334)"/><use xlink:href="#n" transform="matrix(1,0,0,1,1258.0888777177329,180) translate(111.20370370370371 53.33333333333334)"/></g><path d="M1282.2 494.08v-83.16c0-4.08-3.68-10.92-8.3-10.92h-144c-4.63 0-9.07 6.84-9.07 10.92v83.16c-16.2 17.28-15.44 17.28-15.44 17.28 0 4.92 4.43 8.64 10.22 8.64h172.55c5.8 0 10.23-4.08 10.23-8.64l-16.2-17.28zm-67 18.72h-30.1c-1.54 0-3.08-.72-3.08-1.44l3.47-5.64c0-.72 1.15-1.2 2.7-1.2h23.93c1.15 0 2.3.48 2.3 1.2l3.87 5.64c0 1.08-1.54 1.44-3.1 1.44zm59.85-19.2h-147.08v-81.96c0-1.92 1.93-4.56 4.06-4.56h139.35c2.12 0 3.67 2.64 3.67 4.56v81.96z" stroke="#000" stroke-opacity="0"/><g><use xlink:href="#g" transform="matrix(1,0,0,1,1075.3925851451552,529) translate(99.5 14.4)"/></g><path d="M1822.2 494.08v-83.16c0-4.08-3.68-10.92-8.3-10.92h-144c-4.63 0-9.07 6.84-9.07 10.92v83.16c-16.2 17.28-15.44 17.28-15.44 17.28 0 4.92 4.43 8.64 10.22 8.64h172.55c5.8 0 10.23-4.08 10.23-8.64l-16.2-17.28zm-67 18.72h-30.1c-1.54 0-3.08-.72-3.08-1.44l3.47-5.64c0-.72 1.15-1.2 2.7-1.2h23.93c1.15 0 2.3.48 2.3 1.2l3.87 5.64c0 1.08-1.54 1.44-3.1 1.44zm59.85-19.2h-147.08v-81.96c0-1.92 1.93-4.56 4.06-4.56h139.35c2.12 0 3.67 2.64 3.67 4.56v81.96z" stroke="#000" stroke-opacity="0" fill="#3aa6dd"/><g><use xlink:href="#h" transform="matrix(1,0,0,1,1615.3925851451552,529) translate(69.5 14.4)"/></g><path d="M1659.83 411.33l-359.16-.54" stroke="#494949" stroke-width="2" fill="none"/><path d="M1660.92 410.33l-.1.6v1.4h-1v-2z" fill="#494949"/><path d="M1285.4 410.77l14.27-4.6v9.26z" stroke="#494949" stroke-width="2" fill="#494949"/><defs><path fill="#494949" d="M212-179c-10-28-35-45-73-45-59 0-87 40-87 99 0 60 29 101 89 101 43 0 62-24 78-52l27 14C228-24 195 4 139 4 59 4 22-46 18-125c-6-104 99-153 187-111 19 9 31 26 39 46" id="o"/><path fill="#494949" d="M100-194c62-1 85 37 85 99 1 63-27 99-86 99S16-35 15-95c0-66 28-99 85-99zM99-20c44 1 53-31 53-75 0-43-8-75-51-75s-53 32-53 75 10 74 51 75" id="p"/><path fill="#494949" d="M115-194c55 1 70 41 70 98S169 2 115 4C84 4 66-9 55-30l1 105H24l-1-265h31l2 30c10-21 28-34 59-34zm-8 174c40 0 45-34 45-75s-6-73-45-74c-42 0-51 32-51 76 0 43 10 73 51 73" id="q"/><path fill="#494949" d="M100-194c63 0 86 42 84 106H49c0 40 14 67 53 68 26 1 43-12 49-29l28 8c-11 28-37 45-77 45C44 4 14-33 15-96c1-61 26-98 85-98zm52 81c6-60-76-77-97-28-3 7-6 17-6 28h103" id="r"/><path fill="#494949" d="M114-163C36-179 61-72 57 0H25l-1-190h30c1 12-1 29 2 39 6-27 23-49 58-41v29" id="s"/><path fill="#494949" d="M141-36C126-15 110 5 73 4 37 3 15-17 15-53c-1-64 63-63 125-63 3-35-9-54-41-54-24 1-41 7-42 31l-33-3c5-37 33-52 76-52 45 0 72 20 72 64v82c-1 20 7 32 28 27v20c-31 9-61-2-59-35zM48-53c0 20 12 33 32 33 41-3 63-29 60-74-43 2-92-5-92 41" id="t"/><path fill="#494949" d="M59-47c-2 24 18 29 38 22v24C64 9 27 4 27-40v-127H5v-23h24l9-43h21v43h35v23H59v120" id="u"/><g id="a"><use transform="matrix(0.1851851851851852,0,0,0.1851851851851852,0,0)" xlink:href="#o"/><use transform="matrix(0.1851851851851852,0,0,0.1851851851851852,47.96296296296297,0)" xlink:href="#p"/><use transform="matrix(0.1851851851851852,0,0,0.1851851851851852,85,0)" xlink:href="#p"/><use transform="matrix(0.1851851851851852,0,0,0.1851851851851852,122.03703703703705,0)" xlink:href="#q"/><use transform="matrix(0.1851851851851852,0,0,0.1851851851851852,159.07407407407408,0)" xlink:href="#r"/><use transform="matrix(0.1851851851851852,0,0,0.1851851851851852,196.11111111111114,0)" xlink:href="#s"/><use transform="matrix(0.1851851851851852,0,0,0.1851851851851852,218.14814814814818,0)" xlink:href="#t"/><use transform="matrix(0.1851851851851852,0,0,0.1851851851851852,255.18518518518522,0)" xlink:href="#u"/><use transform="matrix(0.1851851851851852,0,0,0.1851851851851852,273.7037037037037,0)" xlink:href="#r"/></g><path fill="#494949" d="M109-170H84l-4-78h32zm-65 0H19l-4-78h33" id="v"/><path fill="#494949" d="M117-194c89-4 53 116 60 194h-32v-121c0-31-8-49-39-48C34-167 62-67 57 0H25l-1-190h30c1 10-1 24 2 32 11-22 29-35 61-36" id="w"/><g id="b"><use transform="matrix(0.08641975308641976,0,0,0.08641975308641976,0,0)" xlink:href="#v"/><use transform="matrix(0.08641975308641976,0,0,0.08641975308641976,10.97530864197531,0)" xlink:href="#o"/><use transform="matrix(0.08641975308641976,0,0,0.08641975308641976,33.358024691358025,0)" xlink:href="#t"/><use transform="matrix(0.08641975308641976,0,0,0.08641975308641976,50.64197530864197,0)" xlink:href="#w"/></g><path fill="#494949" d="M33 0v-248h34V0H33" id="x"/><use transform="matrix(0.08641975308641976,0,0,0.08641975308641976,0,0)" xlink:href="#x" id="c"/><path fill="#494949" d="M106-169C34-169 62-67 57 0H25v-261h32l-1 103c12-21 28-36 61-36 89 0 53 116 60 194h-32v-121c2-32-8-49-39-48" id="y"/><path fill="#494949" d="M108 0H70L1-190h34L89-25l56-165h34" id="z"/><g id="d"><use transform="matrix(0.08641975308641976,0,0,0.08641975308641976,0,0)" xlink:href="#y"/><use transform="matrix(0.08641975308641976,0,0,0.08641975308641976,17.283950617283953,0)" xlink:href="#t"/><use transform="matrix(0.08641975308641976,0,0,0.08641975308641976,34.567901234567906,0)" xlink:href="#z"/><use transform="matrix(0.08641975308641976,0,0,0.08641975308641976,50.12345679012346,0)" xlink:href="#r"/></g><path fill="#494949" d="M24-231v-30h32v30H24zM24 0v-190h32V0H24" id="A"/><path fill="#494949" d="M135-143c-3-34-86-38-87 0 15 53 115 12 119 90S17 21 10-45l28-5c4 36 97 45 98 0-10-56-113-15-118-90-4-57 82-63 122-42 12 7 21 19 24 35" id="B"/><g id="e"><use transform="matrix(0.08641975308641976,0,0,0.08641975308641976,0,0)" xlink:href="#u"/><use transform="matrix(0.08641975308641976,0,0,0.08641975308641976,8.641975308641976,0)" xlink:href="#y"/><use transform="matrix(0.08641975308641976,0,0,0.08641975308641976,25.925925925925927,0)" xlink:href="#A"/><use transform="matrix(0.08641975308641976,0,0,0.08641975308641976,32.75308641975309,0)" xlink:href="#B"/></g><path fill="#494949" d="M96-169c-40 0-48 33-48 73s9 75 48 75c24 0 41-14 43-38l32 2c-6 37-31 61-74 61-59 0-76-41-82-99-10-93 101-131 147-64 4 7 5 14 7 22l-32 3c-4-21-16-35-41-35" id="C"/><path fill="#494949" d="M103-251c84 0 111 97 45 133-19 10-37 24-39 52H78c0-63 77-55 77-114 0-30-21-42-52-43-32 0-53 17-56 46l-32-2c7-45 34-72 88-72zM77 0v-35h34V0H77" id="D"/><g id="f"><use transform="matrix(0.08641975308641976,0,0,0.08641975308641976,0,0)" xlink:href="#q"/><use transform="matrix(0.08641975308641976,0,0,0.08641975308641976,17.283950617283953,0)" xlink:href="#A"/><use transform="matrix(0.08641975308641976,0,0,0.08641975308641976,24.111111111111114,0)" xlink:href="#r"/><use transform="matrix(0.08641975308641976,0,0,0.08641975308641976,41.39506172839506,0)" xlink:href="#C"/><use transform="matrix(0.08641975308641976,0,0,0.08641975308641976,56.95061728395062,0)" xlink:href="#r"/><use transform="matrix(0.08641975308641976,0,0,0.08641975308641976,74.23456790123457,0)" xlink:href="#D"/><use transform="matrix(0.08641975308641976,0,0,0.08641975308641976,91.51851851851853,0)" xlink:href="#v"/></g><path d="M30 0v-248h33v221h125V0H30" id="E"/><path d="M141-36C126-15 110 5 73 4 37 3 15-17 15-53c-1-64 63-63 125-63 3-35-9-54-41-54-24 1-41 7-42 31l-33-3c5-37 33-52 76-52 45 0 72 20 72 64v82c-1 20 7 32 28 27v20c-31 9-61-2-59-35zM48-53c0 20 12 33 32 33 41-3 63-29 60-74-43 2-92-5-92 41" id="F"/><path d="M115-194c55 1 70 41 70 98S169 2 115 4C84 4 66-9 55-30l1 105H24l-1-265h31l2 30c10-21 28-34 59-34zm-8 174c40 0 45-34 45-75s-6-73-45-74c-42 0-51 32-51 76 0 43 10 73 51 73" id="G"/><path d="M59-47c-2 24 18 29 38 22v24C64 9 27 4 27-40v-127H5v-23h24l9-43h21v43h35v23H59v120" id="H"/><path d="M100-194c62-1 85 37 85 99 1 63-27 99-86 99S16-35 15-95c0-66 28-99 85-99zM99-20c44 1 53-31 53-75 0-43-8-75-51-75s-53 32-53 75 10 74 51 75" id="I"/><g id="g"><use transform="matrix(0.05,0,0,0.05,0,0)" xlink:href="#E"/><use transform="matrix(0.05,0,0,0.05,10,0)" xlink:href="#F"/><use transform="matrix(0.05,0,0,0.05,20,0)" xlink:href="#G"/><use transform="matrix(0.05,0,0,0.05,30,0)" xlink:href="#H"/><use transform="matrix(0.05,0,0,0.05,35,0)" xlink:href="#I"/><use transform="matrix(0.05,0,0,0.05,45,0)" xlink:href="#G"/></g><path d="M101-251c82-7 93 87 43 132L82-64C71-53 59-42 53-27h129V0H18c2-99 128-94 128-182 0-28-16-43-45-43s-46 15-49 41l-32-3c6-41 34-60 81-64" id="J"/><path d="M101-251c68 0 85 55 85 127S166 4 100 4C33 4 14-52 14-124c0-73 17-127 87-127zm-1 229c47 0 54-49 54-102s-4-102-53-102c-51 0-55 48-55 102 0 53 5 102 54 102" id="K"/><path d="M110-160c48 1 74 30 74 79 0 53-28 85-80 85-65 0-83-55-86-122-5-90 50-162 133-122 14 7 22 21 27 39l-31 6c-5-40-67-38-82-6-9 19-15 44-15 74 11-20 30-34 60-33zm-7 138c34 0 49-23 49-58s-16-56-50-56c-29 0-50 16-49 49 1 36 15 65 50 65" id="L"/><path d="M33 0v-38h34V0H33" id="M"/><path d="M27 0v-27h64v-190l-56 39v-29l58-41h29v221h61V0H27" id="N"/><path d="M99-251c64 0 84 50 84 122C183-37 130 33 47-8c-14-7-20-23-25-40l30-5c6 39 69 39 84 7 9-19 16-44 16-74-10 22-31 35-62 35-49 0-73-33-73-83 0-54 28-83 82-83zm-1 141c31-1 51-18 51-49 0-36-14-67-51-67-34 0-49 23-49 58 0 34 15 58 49 58" id="O"/><path d="M126-127c33 6 58 20 58 59 0 88-139 92-164 29-3-8-5-16-6-25l32-3c6 27 21 44 54 44 32 0 52-15 52-46 0-38-36-46-79-43v-28c39 1 72-4 72-42 0-27-17-43-46-43-28 0-47 15-49 41l-32-3c6-42 35-63 81-64 48-1 79 21 79 65 0 36-21 52-52 59" id="P"/><g id="h"><use transform="matrix(0.05,0,0,0.05,0,0)" xlink:href="#J"/><use transform="matrix(0.05,0,0,0.05,10,0)" xlink:href="#K"/><use transform="matrix(0.05,0,0,0.05,20,0)" xlink:href="#L"/><use transform="matrix(0.05,0,0,0.05,30,0)" xlink:href="#M"/><use transform="matrix(0.05,0,0,0.05,35,0)" xlink:href="#N"/><use transform="matrix(0.05,0,0,0.05,45,0)" xlink:href="#L"/><use transform="matrix(0.05,0,0,0.05,55,0)" xlink:href="#O"/><use transform="matrix(0.05,0,0,0.05,65,0)" xlink:href="#M"/><use transform="matrix(0.05,0,0,0.05,70,0)" xlink:href="#J"/><use transform="matrix(0.05,0,0,0.05,80,0)" xlink:href="#P"/><use transform="matrix(0.05,0,0,0.05,90,0)" xlink:href="#M"/><use transform="matrix(0.05,0,0,0.05,95,0)" xlink:href="#J"/><use transform="matrix(0.05,0,0,0.05,105,0)" xlink:href="#P"/></g><path fill="#494949" d="M185-189c-5-48-123-54-124 2 14 75 158 14 163 119 3 78-121 87-175 55-17-10-28-26-33-46l33-7c5 56 141 63 141-1 0-78-155-14-162-118-5-82 145-84 179-34 5 7 8 16 11 25" id="Q"/><path fill="#494949" d="M84 4C-5 8 30-112 23-190h32v120c0 31 7 50 39 49 72-2 45-101 50-169h31l1 190h-30c-1-10 1-25-2-33-11 22-28 36-60 37" id="R"/><path fill="#494949" d="M68-38c1 34 0 65-14 84H32c9-13 17-26 17-46H33v-38h35" id="S"/><g id="i"><use transform="matrix(0.08641975308641976,0,0,0.08641975308641976,0,0)" xlink:href="#v"/><use transform="matrix(0.08641975308641976,0,0,0.08641975308641976,10.97530864197531,0)" xlink:href="#Q"/><use transform="matrix(0.08641975308641976,0,0,0.08641975308641976,31.716049382716054,0)" xlink:href="#R"/><use transform="matrix(0.08641975308641976,0,0,0.08641975308641976,49.00000000000001,0)" xlink:href="#s"/><use transform="matrix(0.08641975308641976,0,0,0.08641975308641976,59.283950617283956,0)" xlink:href="#r"/><use transform="matrix(0.08641975308641976,0,0,0.08641975308641976,76.56790123456791,0)" xlink:href="#S"/></g><g id="j"><use transform="matrix(0.08641975308641976,0,0,0.08641975308641976,0,0)" xlink:href="#y"/><use transform="matrix(0.08641975308641976,0,0,0.08641975308641976,17.283950617283953,0)" xlink:href="#r"/><use transform="matrix(0.08641975308641976,0,0,0.08641975308641976,34.567901234567906,0)" xlink:href="#s"/><use transform="matrix(0.08641975308641976,0,0,0.08641975308641976,44.851851851851855,0)" xlink:href="#r"/></g><path fill="#494949" d="M179-190L93 31C79 59 56 82 12 73V49c39 6 53-20 64-50L1-190h34L92-34l54-156h33" id="T"/><g id="k"><use transform="matrix(0.08641975308641976,0,0,0.08641975308641976,0,0)" xlink:href="#T"/><use transform="matrix(0.08641975308641976,0,0,0.08641975308641976,15.555555555555557,0)" xlink:href="#p"/><use transform="matrix(0.08641975308641976,0,0,0.08641975308641976,32.839506172839506,0)" xlink:href="#R"/></g><path fill="#494949" d="M177-190C167-65 218 103 67 71c-23-6-38-20-44-43l32-5c15 47 100 32 89-28v-30C133-14 115 1 83 1 29 1 15-40 15-95c0-56 16-97 71-98 29-1 48 16 59 35 1-10 0-23 2-32h30zM94-22c36 0 50-32 50-73 0-42-14-75-50-75-39 0-46 34-46 75s6 73 46 73" id="U"/><g id="l"><use transform="matrix(0.08641975308641976,0,0,0.08641975308641976,0,0)" xlink:href="#U"/><use transform="matrix(0.08641975308641976,0,0,0.08641975308641976,17.283950617283953,0)" xlink:href="#p"/><use transform="matrix(0.08641975308641976,0,0,0.08641975308641976,34.567901234567906,0)" xlink:href="#v"/></g><path fill="#494949" d="M190 0L58-211 59 0H30v-248h39L202-35l-2-213h31V0h-41" id="V"/><g id="m"><use transform="matrix(0.1851851851851852,0,0,0.1851851851851852,0,0)" xlink:href="#V"/><use transform="matrix(0.1851851851851852,0,0,0.1851851851851852,47.96296296296297,0)" xlink:href="#p"/></g><g id="n"><use transform="matrix(0.1851851851851852,0,0,0.1851851851851852,0,0)" xlink:href="#C"/><use transform="matrix(0.1851851851851852,0,0,0.1851851851851852,33.333333333333336,0)" xlink:href="#p"/><use transform="matrix(0.1851851851851852,0,0,0.1851851851851852,70.37037037037038,0)" xlink:href="#p"/><use transform="matrix(0.1851851851851852,0,0,0.1851851851851852,107.40740740740742,0)" xlink:href="#q"/><use transform="matrix(0.1851851851851852,0,0,0.1851851851851852,144.44444444444446,0)" xlink:href="#r"/><use transform="matrix(0.1851851851851852,0,0,0.1851851851851852,181.4814814814815,0)" xlink:href="#s"/><use transform="matrix(0.1851851851851852,0,0,0.1851851851851852,203.51851851851853,0)" xlink:href="#t"/><use transform="matrix(0.1851851851851852,0,0,0.1851851851851852,240.55555555555557,0)" xlink:href="#u"/><use transform="matrix(0.1851851851851852,0,0,0.1851851851851852,259.0740740740741,0)" xlink:href="#r"/></g></defs></g></svg>