<svg xmlns="http://www.w3.org/2000/svg" xmlns:xlink="http://www.w3.org/1999/xlink" xmlns:lucid="lucid" width="1533.01" height="540"><g transform="translate(140 -40)" lucid:page-tab-id="0_0"><path d="M-1806.4 0h3676.8v1323.2h-3676.8z" fill="#fff"/><path d="M490 240h340v60H490z" fill="none"/><use xlink:href="#a" transform="matrix(1,0,0,1,490,240) translate(37.77777777777777 24.888888888888893)"/><use xlink:href="#b" transform="matrix(1,0,0,1,490,240) translate(143.2962962962963 24.888888888888893)"/><use xlink:href="#c" transform="matrix(1,0,0,1,490,240) translate(224.44444444444446 24.888888888888893)"/><use xlink:href="#d" transform="matrix(1,0,0,1,490,240) translate(259.01234567901236 24.888888888888893)"/><use xlink:href="#e" transform="matrix(1,0,0,1,490,240) translate(37.0864197530864 62.222222222222236)"/><use xlink:href="#f" transform="matrix(1,0,0,1,490,240) translate(163.1728395061728 62.222222222222236)"/><use xlink:href="#g" transform="matrix(1,0,0,1,490,240) translate(197.74074074074073 62.222222222222236)"/><use xlink:href="#h" transform="matrix(1,0,0,1,490,240) translate(254.69135802469137 62.222222222222236)"/><use xlink:href="#i" transform="matrix(1,0,0,1,490,240) translate(36.09259259259258 99.55555555555557)"/><use xlink:href="#j" transform="matrix(1,0,0,1,490,240) translate(117.24074074074073 99.55555555555557)"/><use xlink:href="#k" transform="matrix(1,0,0,1,490,240) translate(210.57407407407408 99.55555555555557)"/><use xlink:href="#l" transform="matrix(1,0,0,1,490,240) translate(253.78395061728395 99.55555555555557)"/><use xlink:href="#m" transform="matrix(1,0,0,1,490,240) translate(76.4074074074074 136.8888888888889)"/><use xlink:href="#n" transform="matrix(1,0,0,1,490,240) translate(157.55555555555554 136.8888888888889)"/><path d="M456.8 494.08v-83.16c0-4.08-3.67-10.92-8.3-10.92h-144c-4.62 0-9.06 6.84-9.06 10.92v83.16c-16.2 17.28-15.44 17.28-15.44 17.28 0 4.92 4.44 8.64 10.23 8.64h172.55c5.8 0 10.23-4.08 10.23-8.64l-16.2-17.28zM389.8 512.8h-30.1c-1.55 0-3.1-.72-3.1-1.44l3.48-5.64c0-.72 1.16-1.2 2.7-1.2h23.93c1.16 0 2.32.48 2.32 1.2l3.86 5.64c0 1.08-1.53 1.44-3.08 1.44zm59.83-19.2H302.58v-81.96c0-1.92 1.93-4.56 4.06-4.56H446c2.1 0 3.65 2.64 3.65 4.56v81.96z" stroke="#000" stroke-opacity="0"/><use xlink:href="#o" transform="matrix(1,0,0,1,250,529) translate(99.5 14.4)"/><path d="M996.8 494.08v-83.16c0-4.08-3.67-10.92-8.3-10.92h-144c-4.62 0-9.06 6.84-9.06 10.92v83.16c-16.2 17.28-15.44 17.28-15.44 17.28 0 4.92 4.44 8.64 10.23 8.64h172.55c5.8 0 10.23-4.08 10.23-8.64l-16.2-17.28zM929.8 512.8h-30.1c-1.55 0-3.1-.72-3.1-1.44l3.48-5.64c0-.72 1.16-1.2 2.7-1.2h23.93c1.16 0 2.32.48 2.32 1.2l3.86 5.64c0 1.08-1.53 1.44-3.08 1.44zm59.83-19.2H842.58v-81.96c0-1.92 1.93-4.56 4.06-4.56H986c2.1 0 3.65 2.64 3.65 4.56v81.96z" stroke="#000" stroke-opacity="0" fill="#3aa6dd"/><use xlink:href="#p" transform="matrix(1,0,0,1,790,529) translate(69.5 14.4)"/><path d="M457.8 480h359.14" stroke="#494949" stroke-width="2" fill="none"/><path d="M457.82 481h-1.03v-2h1.02z" fill="#494949"/><path d="M832.2 480l-14.26 4.64v-9.28z" stroke="#494949" stroke-width="2" fill="#494949"/><path d="M834.44 411.33l-359.17-.54" stroke="#494949" stroke-width="2" fill="none"/><path d="M835.53 410.33l-.1.6v1.4h-1.02l.02-2z" fill="#494949"/><path d="M460 410.77l14.28-4.6v9.26z" stroke="#494949" stroke-width="2" fill="#494949"/><path d="M540 500h240v60H540z" fill="none"/><g><use xlink:href="#q" transform="matrix(1,0,0,1,540,500) translate(9.641975308641975 36.22222222222222)"/></g><path d="M456.8 154.08V70.92c0-4.08-3.67-10.92-8.3-10.92h-144c-4.62 0-9.06 6.84-9.06 10.92v83.16c-16.2 17.28-15.44 17.28-15.44 17.28 0 4.92 4.44 8.64 10.23 8.64h172.55c5.8 0 10.23-4.08 10.23-8.64l-16.2-17.28zM389.8 172.8h-30.1c-1.55 0-3.1-.72-3.1-1.44l3.48-5.64c0-.72 1.16-1.2 2.7-1.2h23.93c1.16 0 2.32.48 2.32 1.2l3.86 5.64c0 1.08-1.53 1.44-3.08 1.44zm59.83-19.2H302.58V71.64c0-1.92 1.93-4.56 4.06-4.56H446c2.1 0 3.65 2.64 3.65 4.56v81.96z" stroke="#000" stroke-opacity="0" fill="#3aa6dd"/><g><use xlink:href="#r" transform="matrix(1,0,0,1,250,189) translate(69.5 14.4)"/></g><path d="M56.8 474.08v-83.16c0-4.08-3.67-10.92-8.3-10.92h-144c-4.62 0-9.06 6.84-9.06 10.92v83.16c-16.2 17.28-15.44 17.28-15.44 17.28 0 4.92 4.44 8.64 10.23 8.64H62.78c5.8 0 10.23-4.08 10.23-8.64l-16.2-17.28zM-10.2 492.8h-30.1c-1.55 0-3.1-.72-3.1-1.44l3.48-5.64c0-.72 1.16-1.2 2.7-1.2h23.93c1.16 0 2.32.48 2.32 1.2l3.86 5.64c0 1.08-1.53 1.44-3.08 1.44zm59.83-19.2H-97.42v-81.96c0-1.92 1.93-4.56 4.06-4.56H46c2.1 0 3.65 2.64 3.65 4.56v81.96z" stroke="#000" stroke-opacity="0" fill="#3aa6dd"/><g><use xlink:href="#s" transform="matrix(1,0,0,1,-150,509) translate(69.5 14.4)"/></g><path d="M1356.8 494.08v-83.16c0-4.08-3.67-10.92-8.3-10.92h-144c-4.62 0-9.06 6.84-9.06 10.92v83.16c-16.2 17.28-15.44 17.28-15.44 17.28 0 4.92 4.44 8.64 10.23 8.64h172.55c5.8 0 10.23-4.08 10.23-8.64l-16.2-17.28zm-66.98 18.72h-30.1c-1.55 0-3.1-.72-3.1-1.44l3.48-5.64c0-.72 1.16-1.2 2.7-1.2h23.93c1.16 0 2.32.48 2.32 1.2l3.86 5.64c0 1.08-1.53 1.44-3.08 1.44zm59.83-19.2h-147.07v-81.96c0-1.92 1.93-4.56 4.06-4.56H1346c2.1 0 3.65 2.64 3.65 4.56v81.96z" stroke="#000" stroke-opacity="0" fill="#3aa6dd"/><g><use xlink:href="#t" transform="matrix(1,0,0,1,1150,529) translate(69.5 14.4)"/></g><path d="M1015.3 459.64h161.64" stroke="#494949" stroke-width="2" fill="none"/><path d="M1000.03 459.64l14.27-4.64v9.28zM1192.2 459.64l-14.26 4.64V455z" stroke="#494949" stroke-width="2" fill="#494949"/><defs><path fill="#494949" d="M109-170H84l-4-78h32zm-65 0H19l-4-78h33" id="u"/><path fill="#494949" d="M137-103V0h-34v-103L8-248h37l75 118 75-118h37" id="v"/><path fill="#494949" d="M100-194c62-1 85 37 85 99 1 63-27 99-86 99S16-35 15-95c0-66 28-99 85-99zM99-20c44 1 53-31 53-75 0-43-8-75-51-75s-53 32-53 75 10 74 51 75" id="w"/><path fill="#494949" d="M84 4C-5 8 30-112 23-190h32v120c0 31 7 50 39 49 72-2 45-101 50-169h31l1 190h-30c-1-10 1-25-2-33-11 22-28 36-60 37" id="x"/><path fill="#494949" d="M47-170H22l-4-78h33" id="y"/><path fill="#494949" d="M114-163C36-179 61-72 57 0H25l-1-190h30c1 12-1 29 2 39 6-27 23-49 58-41v29" id="z"/><path fill="#494949" d="M100-194c63 0 86 42 84 106H49c0 40 14 67 53 68 26 1 43-12 49-29l28 8c-11 28-37 45-77 45C44 4 14-33 15-96c1-61 26-98 85-98zm52 81c6-60-76-77-97-28-3 7-6 17-6 28h103" id="A"/><g id="a"><use transform="matrix(0.08641975308641976,0,0,0.08641975308641976,0,0)" xlink:href="#u"/><use transform="matrix(0.08641975308641976,0,0,0.08641975308641976,10.97530864197531,0)" xlink:href="#v"/><use transform="matrix(0.08641975308641976,0,0,0.08641975308641976,28.864197530864207,0)" xlink:href="#w"/><use transform="matrix(0.08641975308641976,0,0,0.08641975308641976,46.14814814814815,0)" xlink:href="#x"/><use transform="matrix(0.08641975308641976,0,0,0.08641975308641976,63.43209876543211,0)" xlink:href="#y"/><use transform="matrix(0.08641975308641976,0,0,0.08641975308641976,69.30864197530865,0)" xlink:href="#z"/><use transform="matrix(0.08641975308641976,0,0,0.08641975308641976,79.5925925925926,0)" xlink:href="#A"/></g><path fill="#494949" d="M96-169c-40 0-48 33-48 73s9 75 48 75c24 0 41-14 43-38l32 2c-6 37-31 61-74 61-59 0-76-41-82-99-10-93 101-131 147-64 4 7 5 14 7 22l-32 3c-4-21-16-35-41-35" id="B"/><path fill="#494949" d="M24 0v-261h32V0H24" id="C"/><path fill="#494949" d="M135-143c-3-34-86-38-87 0 15 53 115 12 119 90S17 21 10-45l28-5c4 36 97 45 98 0-10-56-113-15-118-90-4-57 82-63 122-42 12 7 21 19 24 35" id="D"/><g id="b"><use transform="matrix(0.08641975308641976,0,0,0.08641975308641976,0,0)" xlink:href="#B"/><use transform="matrix(0.08641975308641976,0,0,0.08641975308641976,15.555555555555557,0)" xlink:href="#C"/><use transform="matrix(0.08641975308641976,0,0,0.08641975308641976,22.38271604938272,0)" xlink:href="#w"/><use transform="matrix(0.08641975308641976,0,0,0.08641975308641976,39.66666666666667,0)" xlink:href="#D"/><use transform="matrix(0.08641975308641976,0,0,0.08641975308641976,55.22222222222223,0)" xlink:href="#A"/></g><path fill="#494949" d="M59-47c-2 24 18 29 38 22v24C64 9 27 4 27-40v-127H5v-23h24l9-43h21v43h35v23H59v120" id="E"/><g id="c"><use transform="matrix(0.08641975308641976,0,0,0.08641975308641976,0,0)" xlink:href="#E"/><use transform="matrix(0.08641975308641976,0,0,0.08641975308641976,8.641975308641976,0)" xlink:href="#w"/></g><path fill="#494949" d="M106-169C34-169 62-67 57 0H25v-261h32l-1 103c12-21 28-36 61-36 89 0 53 116 60 194h-32v-121c2-32-8-49-39-48" id="F"/><g id="d"><use transform="matrix(0.08641975308641976,0,0,0.08641975308641976,0,0)" xlink:href="#E"/><use transform="matrix(0.08641975308641976,0,0,0.08641975308641976,8.641975308641976,0)" xlink:href="#F"/><use transform="matrix(0.08641975308641976,0,0,0.08641975308641976,25.925925925925927,0)" xlink:href="#A"/></g><path fill="#494949" d="M24-231v-30h32v30H24zM24 0v-190h32V0H24" id="G"/><path fill="#494949" d="M117-194c89-4 53 116 60 194h-32v-121c0-31-8-49-39-48C34-167 62-67 57 0H25l-1-190h30c1 10-1 24 2 32 11-22 29-35 61-36" id="H"/><path fill="#494949" d="M101-234c-31-9-42 10-38 44h38v23H63V0H32v-167H5v-23h27c-7-52 17-82 69-68v24" id="I"/><path fill="#494949" d="M141-36C126-15 110 5 73 4 37 3 15-17 15-53c-1-64 63-63 125-63 3-35-9-54-41-54-24 1-41 7-42 31l-33-3c5-37 33-52 76-52 45 0 72 20 72 64v82c-1 20 7 32 28 27v20c-31 9-61-2-59-35zM48-53c0 20 12 33 32 33 41-3 63-29 60-74-43 2-92-5-92 41" id="J"/><g id="e"><use transform="matrix(0.08641975308641976,0,0,0.08641975308641976,0,0)" xlink:href="#G"/><use transform="matrix(0.08641975308641976,0,0,0.08641975308641976,6.8271604938271615,0)" xlink:href="#H"/><use transform="matrix(0.08641975308641976,0,0,0.08641975308641976,24.111111111111114,0)" xlink:href="#I"/><use transform="matrix(0.08641975308641976,0,0,0.08641975308641976,32.75308641975309,0)" xlink:href="#w"/><use transform="matrix(0.08641975308641976,0,0,0.08641975308641976,50.037037037037045,0)" xlink:href="#F"/><use transform="matrix(0.08641975308641976,0,0,0.08641975308641976,67.32098765432099,0)" xlink:href="#J"/><use transform="matrix(0.08641975308641976,0,0,0.08641975308641976,84.60493827160494,0)" xlink:href="#D"/><use transform="matrix(0.08641975308641976,0,0,0.08641975308641976,100.16049382716048,0)" xlink:href="#F"/></g><g id="f"><use transform="matrix(0.08641975308641976,0,0,0.08641975308641976,0,0)" xlink:href="#w"/><use transform="matrix(0.08641975308641976,0,0,0.08641975308641976,17.283950617283953,0)" xlink:href="#I"/></g><g id="g"><use transform="matrix(0.08641975308641976,0,0,0.08641975308641976,0,0)" xlink:href="#E"/><use transform="matrix(0.08641975308641976,0,0,0.08641975308641976,8.641975308641976,0)" xlink:href="#F"/><use transform="matrix(0.08641975308641976,0,0,0.08641975308641976,25.925925925925927,0)" xlink:href="#G"/><use transform="matrix(0.08641975308641976,0,0,0.08641975308641976,32.75308641975309,0)" xlink:href="#D"/></g><path fill="#494949" d="M33 0v-38h34V0H33" id="K"/><g id="h"><use transform="matrix(0.08641975308641976,0,0,0.08641975308641976,0,0)" xlink:href="#I"/><use transform="matrix(0.08641975308641976,0,0,0.08641975308641976,8.641975308641976,0)" xlink:href="#G"/><use transform="matrix(0.08641975308641976,0,0,0.08641975308641976,15.469135802469138,0)" xlink:href="#C"/><use transform="matrix(0.08641975308641976,0,0,0.08641975308641976,22.296296296296298,0)" xlink:href="#A"/><use transform="matrix(0.08641975308641976,0,0,0.08641975308641976,39.580246913580254,0)" xlink:href="#K"/></g><path fill="#494949" d="M266 0h-40l-56-210L115 0H75L2-248h35L96-30l15-64 43-154h32l59 218 59-218h35" id="L"/><g id="i"><use transform="matrix(0.08641975308641976,0,0,0.08641975308641976,0,0)" xlink:href="#L"/><use transform="matrix(0.08641975308641976,0,0,0.08641975308641976,29.296296296296298,0)" xlink:href="#F"/><use transform="matrix(0.08641975308641976,0,0,0.08641975308641976,46.580246913580254,0)" xlink:href="#J"/><use transform="matrix(0.08641975308641976,0,0,0.08641975308641976,63.8641975308642,0)" xlink:href="#E"/></g><path fill="#494949" d="M85-194c31 0 48 13 60 33l-1-100h32l1 261h-30c-2-10 0-23-3-31C134-8 116 4 85 4 32 4 16-35 15-94c0-66 23-100 70-100zm9 24c-40 0-46 34-46 75 0 40 6 74 45 74 42 0 51-32 51-76 0-42-9-74-50-73" id="M"/><g id="j"><use transform="matrix(0.08641975308641976,0,0,0.08641975308641976,0,0)" xlink:href="#H"/><use transform="matrix(0.08641975308641976,0,0,0.08641975308641976,17.283950617283953,0)" xlink:href="#w"/><use transform="matrix(0.08641975308641976,0,0,0.08641975308641976,34.567901234567906,0)" xlink:href="#M"/><use transform="matrix(0.08641975308641976,0,0,0.08641975308641976,51.851851851851855,0)" xlink:href="#A"/><use transform="matrix(0.08641975308641976,0,0,0.08641975308641976,69.13580246913581,0)" xlink:href="#D"/></g><g id="k"><use transform="matrix(0.08641975308641976,0,0,0.08641975308641976,0,0)" xlink:href="#M"/><use transform="matrix(0.08641975308641976,0,0,0.08641975308641976,17.283950617283953,0)" xlink:href="#w"/></g><path fill="#494949" d="M179-190L93 31C79 59 56 82 12 73V49c39 6 53-20 64-50L1-190h34L92-34l54-156h33" id="N"/><g id="l"><use transform="matrix(0.08641975308641976,0,0,0.08641975308641976,0,0)" xlink:href="#N"/><use transform="matrix(0.08641975308641976,0,0,0.08641975308641976,15.555555555555557,0)" xlink:href="#w"/><use transform="matrix(0.08641975308641976,0,0,0.08641975308641976,32.839506172839506,0)" xlink:href="#x"/></g><path fill="#494949" d="M143 0L79-87 56-68V0H24v-261h32v163l83-92h37l-77 82L181 0h-38" id="O"/><path fill="#494949" d="M206 0h-36l-40-164L89 0H53L-1-190h32L70-26l43-164h34l41 164 42-164h31" id="P"/><g id="m"><use transform="matrix(0.08641975308641976,0,0,0.08641975308641976,0,0)" xlink:href="#O"/><use transform="matrix(0.08641975308641976,0,0,0.08641975308641976,15.555555555555557,0)" xlink:href="#H"/><use transform="matrix(0.08641975308641976,0,0,0.08641975308641976,32.839506172839506,0)" xlink:href="#w"/><use transform="matrix(0.08641975308641976,0,0,0.08641975308641976,50.123456790123456,0)" xlink:href="#P"/></g><path fill="#494949" d="M115-194c53 0 69 39 70 98 0 66-23 100-70 100C84 3 66-7 56-30L54 0H23l1-261h32v101c10-23 28-34 59-34zm-8 174c40 0 45-34 45-75 0-40-5-75-45-74-42 0-51 32-51 76 0 43 10 73 51 73" id="Q"/><path fill="#494949" d="M103-251c84 0 111 97 45 133-19 10-37 24-39 52H78c0-63 77-55 77-114 0-30-21-42-52-43-32 0-53 17-56 46l-32-2c7-45 34-72 88-72zM77 0v-35h34V0H77" id="R"/><g id="n"><use transform="matrix(0.08641975308641976,0,0,0.08641975308641976,0,0)" xlink:href="#J"/><use transform="matrix(0.08641975308641976,0,0,0.08641975308641976,17.283950617283953,0)" xlink:href="#Q"/><use transform="matrix(0.08641975308641976,0,0,0.08641975308641976,34.567901234567906,0)" xlink:href="#w"/><use transform="matrix(0.08641975308641976,0,0,0.08641975308641976,51.851851851851855,0)" xlink:href="#x"/><use transform="matrix(0.08641975308641976,0,0,0.08641975308641976,69.13580246913581,0)" xlink:href="#E"/><use transform="matrix(0.08641975308641976,0,0,0.08641975308641976,77.77777777777779,0)" xlink:href="#R"/><use transform="matrix(0.08641975308641976,0,0,0.08641975308641976,95.06172839506173,0)" xlink:href="#u"/></g><path d="M30 0v-248h33v221h125V0H30" id="S"/><path d="M141-36C126-15 110 5 73 4 37 3 15-17 15-53c-1-64 63-63 125-63 3-35-9-54-41-54-24 1-41 7-42 31l-33-3c5-37 33-52 76-52 45 0 72 20 72 64v82c-1 20 7 32 28 27v20c-31 9-61-2-59-35zM48-53c0 20 12 33 32 33 41-3 63-29 60-74-43 2-92-5-92 41" id="T"/><path d="M115-194c55 1 70 41 70 98S169 2 115 4C84 4 66-9 55-30l1 105H24l-1-265h31l2 30c10-21 28-34 59-34zm-8 174c40 0 45-34 45-75s-6-73-45-74c-42 0-51 32-51 76 0 43 10 73 51 73" id="U"/><path d="M59-47c-2 24 18 29 38 22v24C64 9 27 4 27-40v-127H5v-23h24l9-43h21v43h35v23H59v120" id="V"/><path d="M100-194c62-1 85 37 85 99 1 63-27 99-86 99S16-35 15-95c0-66 28-99 85-99zM99-20c44 1 53-31 53-75 0-43-8-75-51-75s-53 32-53 75 10 74 51 75" id="W"/><g id="o"><use transform="matrix(0.05,0,0,0.05,0,0)" xlink:href="#S"/><use transform="matrix(0.05,0,0,0.05,10,0)" xlink:href="#T"/><use transform="matrix(0.05,0,0,0.05,20,0)" xlink:href="#U"/><use transform="matrix(0.05,0,0,0.05,30,0)" xlink:href="#V"/><use transform="matrix(0.05,0,0,0.05,35,0)" xlink:href="#W"/><use transform="matrix(0.05,0,0,0.05,45,0)" xlink:href="#U"/></g><path d="M101-251c82-7 93 87 43 132L82-64C71-53 59-42 53-27h129V0H18c2-99 128-94 128-182 0-28-16-43-45-43s-46 15-49 41l-32-3c6-41 34-60 81-64" id="X"/><path d="M101-251c68 0 85 55 85 127S166 4 100 4C33 4 14-52 14-124c0-73 17-127 87-127zm-1 229c47 0 54-49 54-102s-4-102-53-102c-51 0-55 48-55 102 0 53 5 102 54 102" id="Y"/><path d="M110-160c48 1 74 30 74 79 0 53-28 85-80 85-65 0-83-55-86-122-5-90 50-162 133-122 14 7 22 21 27 39l-31 6c-5-40-67-38-82-6-9 19-15 44-15 74 11-20 30-34 60-33zm-7 138c34 0 49-23 49-58s-16-56-50-56c-29 0-50 16-49 49 1 36 15 65 50 65" id="Z"/><path d="M33 0v-38h34V0H33" id="aa"/><path d="M27 0v-27h64v-190l-56 39v-29l58-41h29v221h61V0H27" id="ab"/><path d="M99-251c64 0 84 50 84 122C183-37 130 33 47-8c-14-7-20-23-25-40l30-5c6 39 69 39 84 7 9-19 16-44 16-74-10 22-31 35-62 35-49 0-73-33-73-83 0-54 28-83 82-83zm-1 141c31-1 51-18 51-49 0-36-14-67-51-67-34 0-49 23-49 58 0 34 15 58 49 58" id="ac"/><path d="M126-127c33 6 58 20 58 59 0 88-139 92-164 29-3-8-5-16-6-25l32-3c6 27 21 44 54 44 32 0 52-15 52-46 0-38-36-46-79-43v-28c39 1 72-4 72-42 0-27-17-43-46-43-28 0-47 15-49 41l-32-3c6-42 35-63 81-64 48-1 79 21 79 65 0 36-21 52-52 59" id="ad"/><g id="p"><use transform="matrix(0.05,0,0,0.05,0,0)" xlink:href="#X"/><use transform="matrix(0.05,0,0,0.05,10,0)" xlink:href="#Y"/><use transform="matrix(0.05,0,0,0.05,20,0)" xlink:href="#Z"/><use transform="matrix(0.05,0,0,0.05,30,0)" xlink:href="#aa"/><use transform="matrix(0.05,0,0,0.05,35,0)" xlink:href="#ab"/><use transform="matrix(0.05,0,0,0.05,45,0)" xlink:href="#Z"/><use transform="matrix(0.05,0,0,0.05,55,0)" xlink:href="#ac"/><use transform="matrix(0.05,0,0,0.05,65,0)" xlink:href="#aa"/><use transform="matrix(0.05,0,0,0.05,70,0)" xlink:href="#X"/><use transform="matrix(0.05,0,0,0.05,80,0)" xlink:href="#ad"/><use transform="matrix(0.05,0,0,0.05,90,0)" xlink:href="#aa"/><use transform="matrix(0.05,0,0,0.05,95,0)" xlink:href="#X"/><use transform="matrix(0.05,0,0,0.05,105,0)" xlink:href="#ad"/></g><path fill="#494949" d="M101-251c82-7 93 87 43 132L82-64C71-53 59-42 53-27h129V0H18c2-99 128-94 128-182 0-28-16-43-45-43s-46 15-49 41l-32-3c6-41 34-60 81-64" id="ae"/><path fill="#494949" d="M101-251c68 0 85 55 85 127S166 4 100 4C33 4 14-52 14-124c0-73 17-127 87-127zm-1 229c47 0 54-49 54-102s-4-102-53-102c-51 0-55 48-55 102 0 53 5 102 54 102" id="af"/><path fill="#494949" d="M110-160c48 1 74 30 74 79 0 53-28 85-80 85-65 0-83-55-86-122-5-90 50-162 133-122 14 7 22 21 27 39l-31 6c-5-40-67-38-82-6-9 19-15 44-15 74 11-20 30-34 60-33zm-7 138c34 0 49-23 49-58s-16-56-50-56c-29 0-50 16-49 49 1 36 15 65 50 65" id="ag"/><path fill="#494949" d="M27 0v-27h64v-190l-56 39v-29l58-41h29v221h61V0H27" id="ah"/><path fill="#494949" d="M155-56V0h-30v-56H8v-25l114-167h33v167h35v25h-35zm-30-156c-27 46-58 90-88 131h88v-131" id="ai"/><path fill="#494949" d="M134-131c28 9 52 24 51 62-1 50-34 73-85 73S17-19 16-69c0-36 21-54 49-61-75-25-45-126 34-121 46 3 78 18 79 63 0 33-17 51-44 57zm-34-11c31 1 46-15 46-44 0-28-17-43-47-42-29 0-46 13-45 42 1 28 16 44 46 44zm1 122c35 0 51-18 51-52 0-30-18-46-53-46-33 0-51 17-51 47 0 34 19 51 53 51" id="aj"/><path fill="#494949" d="M126-127c33 6 58 20 58 59 0 88-139 92-164 29-3-8-5-16-6-25l32-3c6 27 21 44 54 44 32 0 52-15 52-46 0-38-36-46-79-43v-28c39 1 72-4 72-42 0-27-17-43-46-43-28 0-47 15-49 41l-32-3c6-42 35-63 81-64 48-1 79 21 79 65 0 36-21 52-52 59" id="ak"/><g id="q"><use transform="matrix(0.08641975308641976,0,0,0.08641975308641976,0,0)" xlink:href="#u"/><use transform="matrix(0.08641975308641976,0,0,0.08641975308641976,10.97530864197531,0)" xlink:href="#ae"/><use transform="matrix(0.08641975308641976,0,0,0.08641975308641976,28.259259259259263,0)" xlink:href="#af"/><use transform="matrix(0.08641975308641976,0,0,0.08641975308641976,45.543209876543216,0)" xlink:href="#ag"/><use transform="matrix(0.08641975308641976,0,0,0.08641975308641976,62.827160493827165,0)" xlink:href="#K"/><use transform="matrix(0.08641975308641976,0,0,0.08641975308641976,71.46913580246914,0)" xlink:href="#ah"/><use transform="matrix(0.08641975308641976,0,0,0.08641975308641976,88.75308641975309,0)" xlink:href="#ai"/><use transform="matrix(0.08641975308641976,0,0,0.08641975308641976,106.03703703703702,0)" xlink:href="#aj"/><use transform="matrix(0.08641975308641976,0,0,0.08641975308641976,123.32098765432099,0)" xlink:href="#K"/><use transform="matrix(0.08641975308641976,0,0,0.08641975308641976,131.96296296296296,0)" xlink:href="#ae"/><use transform="matrix(0.08641975308641976,0,0,0.08641975308641976,149.2469135802469,0)" xlink:href="#ak"/><use transform="matrix(0.08641975308641976,0,0,0.08641975308641976,166.53086419753086,0)" xlink:href="#K"/><use transform="matrix(0.08641975308641976,0,0,0.08641975308641976,175.17283950617283,0)" xlink:href="#ae"/><use transform="matrix(0.08641975308641976,0,0,0.08641975308641976,192.45679012345678,0)" xlink:href="#ak"/><use transform="matrix(0.08641975308641976,0,0,0.08641975308641976,209.74074074074073,0)" xlink:href="#u"/></g><path d="M54-142c48-35 137-8 131 61C196 18 31 33 14-55l32-4c7 23 22 37 52 37 35-1 51-22 54-58 4-55-73-65-99-34H22l8-134h141v27H59" id="al"/><g id="r"><use transform="matrix(0.05,0,0,0.05,0,0)" xlink:href="#X"/><use transform="matrix(0.05,0,0,0.05,10,0)" xlink:href="#Y"/><use transform="matrix(0.05,0,0,0.05,20,0)" xlink:href="#Z"/><use transform="matrix(0.05,0,0,0.05,30,0)" xlink:href="#aa"/><use transform="matrix(0.05,0,0,0.05,35,0)" xlink:href="#ab"/><use transform="matrix(0.05,0,0,0.05,45,0)" xlink:href="#Z"/><use transform="matrix(0.05,0,0,0.05,55,0)" xlink:href="#ac"/><use transform="matrix(0.05,0,0,0.05,65,0)" xlink:href="#aa"/><use transform="matrix(0.05,0,0,0.05,70,0)" xlink:href="#X"/><use transform="matrix(0.05,0,0,0.05,80,0)" xlink:href="#al"/><use transform="matrix(0.05,0,0,0.05,90,0)" xlink:href="#aa"/><use transform="matrix(0.05,0,0,0.05,95,0)" xlink:href="#X"/><use transform="matrix(0.05,0,0,0.05,105,0)" xlink:href="#ad"/></g><path d="M64 0c3-98 48-159 88-221H18v-27h164v26C143-157 98-101 97 0H64" id="am"/><g id="s"><use transform="matrix(0.05,0,0,0.05,0,0)" xlink:href="#X"/><use transform="matrix(0.05,0,0,0.05,10,0)" xlink:href="#Y"/><use transform="matrix(0.05,0,0,0.05,20,0)" xlink:href="#Z"/><use transform="matrix(0.05,0,0,0.05,30,0)" xlink:href="#aa"/><use transform="matrix(0.05,0,0,0.05,35,0)" xlink:href="#ab"/><use transform="matrix(0.05,0,0,0.05,45,0)" xlink:href="#am"/><use transform="matrix(0.05,0,0,0.05,55,0)" xlink:href="#ac"/><use transform="matrix(0.05,0,0,0.05,65,0)" xlink:href="#aa"/><use transform="matrix(0.05,0,0,0.05,70,0)" xlink:href="#X"/><use transform="matrix(0.05,0,0,0.05,80,0)" xlink:href="#ad"/><use transform="matrix(0.05,0,0,0.05,90,0)" xlink:href="#aa"/><use transform="matrix(0.05,0,0,0.05,95,0)" xlink:href="#X"/><use transform="matrix(0.05,0,0,0.05,105,0)" xlink:href="#ad"/></g><path d="M155-56V0h-30v-56H8v-25l114-167h33v167h35v25h-35zm-30-156c-27 46-58 90-88 131h88v-131" id="an"/><g id="t"><use transform="matrix(0.05,0,0,0.05,0,0)" xlink:href="#X"/><use transform="matrix(0.05,0,0,0.05,10,0)" xlink:href="#Y"/><use transform="matrix(0.05,0,0,0.05,20,0)" xlink:href="#Z"/><use transform="matrix(0.05,0,0,0.05,30,0)" xlink:href="#aa"/><use transform="matrix(0.05,0,0,0.05,35,0)" xlink:href="#ab"/><use transform="matrix(0.05,0,0,0.05,45,0)" xlink:href="#an"/><use transform="matrix(0.05,0,0,0.05,55,0)" xlink:href="#ac"/><use transform="matrix(0.05,0,0,0.05,65,0)" xlink:href="#aa"/><use transform="matrix(0.05,0,0,0.05,70,0)" xlink:href="#X"/><use transform="matrix(0.05,0,0,0.05,80,0)" xlink:href="#ad"/><use transform="matrix(0.05,0,0,0.05,90,0)" xlink:href="#aa"/><use transform="matrix(0.05,0,0,0.05,95,0)" xlink:href="#X"/><use transform="matrix(0.05,0,0,0.05,105,0)" xlink:href="#ad"/></g></defs></g></svg>