<svg xmlns="http://www.w3.org/2000/svg" xmlns:xlink="http://www.w3.org/1999/xlink" xmlns:lucid="lucid" width="1056.5" height="907"><g transform="translate(140 20)" lucid:page-tab-id="0_0"><path d="M-1806.4 0h3676.8v1323.2h-3676.8z" fill="#fff"/><path d="M656.5 320h240v60h-240z" fill="none"/><use xlink:href="#a" transform="matrix(1,0,0,1,656.5037074274223,320) translate(35.30864197530863 24.888888888888893)"/><use xlink:href="#b" transform="matrix(1,0,0,1,656.5037074274223,320) translate(102.71604938271605 24.888888888888893)"/><use xlink:href="#c" transform="matrix(1,0,0,1,656.5037074274223,320) translate(187.40740740740742 24.888888888888893)"/><use xlink:href="#d" transform="matrix(1,0,0,1,656.5037074274223,320) translate(35.39506172839506 62.222222222222236)"/><use xlink:href="#e" transform="matrix(1,0,0,1,656.5037074274223,320) translate(152.7530864197531 62.222222222222236)"/><path d="M456.8 494.08v-83.16c0-4.08-3.67-10.92-8.3-10.92h-144c-4.62 0-9.06 6.84-9.06 10.92v83.16c-16.2 17.28-15.44 17.28-15.44 17.28 0 4.92 4.44 8.64 10.23 8.64h172.55c5.8 0 10.23-4.08 10.23-8.64l-16.2-17.28zM389.8 512.8h-30.1c-1.55 0-3.1-.72-3.1-1.44l3.48-5.64c0-.72 1.16-1.2 2.7-1.2h23.93c1.16 0 2.32.48 2.32 1.2l3.86 5.64c0 1.08-1.53 1.44-3.08 1.44zm59.83-19.2H302.58v-81.96c0-1.92 1.93-4.56 4.06-4.56H446c2.1 0 3.65 2.64 3.65 4.56v81.96z" stroke="#000" stroke-opacity="0"/><use xlink:href="#f" transform="matrix(1,0,0,1,250,529) translate(99.5 14.4)"/><path d="M856.8 494.08v-83.16c0-4.08-3.67-10.92-8.3-10.92h-144c-4.62 0-9.06 6.84-9.06 10.92v83.16c-16.2 17.28-15.44 17.28-15.44 17.28 0 4.92 4.44 8.64 10.23 8.64h172.55c5.8 0 10.23-4.08 10.23-8.64l-16.2-17.28zM789.8 512.8h-30.1c-1.55 0-3.1-.72-3.1-1.44l3.48-5.64c0-.72 1.16-1.2 2.7-1.2h23.93c1.16 0 2.32.48 2.32 1.2l3.86 5.64c0 1.08-1.53 1.44-3.08 1.44zm59.83-19.2H702.58v-81.96c0-1.92 1.93-4.56 4.06-4.56H846c2.1 0 3.65 2.64 3.65 4.56v81.96z" stroke="#000" stroke-opacity="0" fill="#3aa6dd"/><use xlink:href="#g" transform="matrix(1,0,0,1,650,529) translate(69.5 14.4)"/><path d="M456.8 174.08V90.92c0-4.08-3.67-10.92-8.3-10.92h-144c-4.62 0-9.06 6.84-9.06 10.92v83.16c-16.2 17.28-15.44 17.28-15.44 17.28 0 4.92 4.44 8.64 10.23 8.64h172.55c5.8 0 10.23-4.08 10.23-8.64l-16.2-17.28zM389.8 192.8h-30.1c-1.55 0-3.1-.72-3.1-1.44l3.48-5.64c0-.72 1.16-1.2 2.7-1.2h23.93c1.16 0 2.32.48 2.32 1.2l3.86 5.64c0 1.08-1.53 1.44-3.08 1.44zm59.83-19.2H302.58V91.64c0-1.92 1.93-4.56 4.06-4.56H446c2.1 0 3.65 2.64 3.65 4.56v81.96z" stroke="#000" stroke-opacity="0" fill="#3aa6dd"/><use xlink:href="#h" transform="matrix(1,0,0,1,250,209) translate(69.5 14.4)"/><path d="M56.8 494.08v-83.16c0-4.08-3.67-10.92-8.3-10.92h-144c-4.62 0-9.06 6.84-9.06 10.92v83.16c-16.2 17.28-15.44 17.28-15.44 17.28 0 4.92 4.44 8.64 10.23 8.64H62.78c5.8 0 10.23-4.08 10.23-8.64l-16.2-17.28zM-10.2 512.8h-30.1c-1.55 0-3.1-.72-3.1-1.44l3.48-5.64c0-.72 1.16-1.2 2.7-1.2h23.93c1.16 0 2.32.48 2.32 1.2l3.86 5.64c0 1.08-1.53 1.44-3.08 1.44zm59.83-19.2H-97.42v-81.96c0-1.92 1.93-4.56 4.06-4.56H46c2.1 0 3.65 2.64 3.65 4.56v81.96z" stroke="#000" stroke-opacity="0" fill="#c92d39"/><use xlink:href="#i" transform="matrix(1,0,0,1,-150,529) translate(69.5 14.4)"/><path d="M456.8 814.08v-83.16c0-4.08-3.67-10.92-8.3-10.92h-144c-4.62 0-9.06 6.84-9.06 10.92v83.16c-16.2 17.28-15.44 17.28-15.44 17.28 0 4.92 4.44 8.64 10.23 8.64h172.55c5.8 0 10.23-4.08 10.23-8.64l-16.2-17.28zM389.8 832.8h-30.1c-1.55 0-3.1-.72-3.1-1.44l3.48-5.64c0-.72 1.16-1.2 2.7-1.2h23.93c1.16 0 2.32.48 2.32 1.2l3.86 5.64c0 1.08-1.53 1.44-3.08 1.44zm59.83-19.2H302.58v-81.96c0-1.92 1.93-4.56 4.06-4.56H446c2.1 0 3.65 2.64 3.65 4.56v81.96z" stroke="#000" stroke-opacity="0" fill="#3aa6dd"/><use xlink:href="#j" transform="matrix(1,0,0,1,250,849) translate(69.5 14.4)"/><path d="M376.5 701.5v-163" stroke="#494949" stroke-width="2" fill="none"/><path d="M376.5 716.76l-4.63-14.26h9.27zM376.5 523.24l4.64 14.26h-9.27z" stroke="#494949" stroke-width="2" fill="#494949"/><path d="M475.3 459.64h201.64" stroke="#494949" stroke-width="2" fill="none"/><path d="M460.03 459.64L474.3 455v9.28zM692.2 459.64l-14.26 4.64V455z" stroke="#494949" stroke-width="2" fill="#494949"/><path d="M376.5 381.5v-163" stroke="#494949" stroke-width="2" fill="none"/><path d="M376.5 396.76l-4.63-14.26h9.27zM376.5 203.24l4.64 14.26h-9.27z" stroke="#494949" stroke-width="2" fill="#494949"/><path d="M75.3 459.64h201.64" stroke="#494949" stroke-width="2" fill="none"/><path d="M60.03 459.64L74.3 455v9.28zM292.2 459.64l-14.26 4.64V455z" stroke="#494949" stroke-width="2" fill="#494949"/><path d="M460 750h240v60H460z" fill="none"/><use xlink:href="#a" transform="matrix(1,0,0,1,460,750) translate(35.30864197530863 24.888888888888893)"/><use xlink:href="#b" transform="matrix(1,0,0,1,460,750) translate(102.71604938271605 24.888888888888893)"/><use xlink:href="#k" transform="matrix(1,0,0,1,460,750) translate(187.40740740740742 24.888888888888893)"/><use xlink:href="#d" transform="matrix(1,0,0,1,460,750) translate(35.39506172839506 62.222222222222236)"/><use xlink:href="#e" transform="matrix(1,0,0,1,460,750) translate(152.7530864197531 62.222222222222236)"/><path d="M256.5 0h240v60h-240z" fill="none"/><g><use xlink:href="#a" transform="matrix(1,0,0,1,256.5037074274224,0) translate(35.30864197530863 24.888888888888893)"/><use xlink:href="#b" transform="matrix(1,0,0,1,256.5037074274224,0) translate(102.71604938271605 24.888888888888893)"/><use xlink:href="#l" transform="matrix(1,0,0,1,256.5037074274224,0) translate(187.40740740740742 24.888888888888893)"/><use xlink:href="#d" transform="matrix(1,0,0,1,256.5037074274224,0) translate(35.39506172839506 62.222222222222236)"/><use xlink:href="#e" transform="matrix(1,0,0,1,256.5037074274224,0) translate(152.7530864197531 62.222222222222236)"/></g><path d="M-120 300h240v60h-240z" fill="none"/><g><use xlink:href="#a" transform="matrix(1,0,0,1,-120,300) translate(26.666666666666657 24.888888888888893)"/><use xlink:href="#b" transform="matrix(1,0,0,1,-120,300) translate(94.07407407407408 24.888888888888893)"/><use xlink:href="#m" transform="matrix(1,0,0,1,-120,300) translate(178.76543209876544 24.888888888888893)"/><use xlink:href="#d" transform="matrix(1,0,0,1,-120,300) translate(35.39506172839506 62.222222222222236)"/><use xlink:href="#e" transform="matrix(1,0,0,1,-120,300) translate(152.7530864197531 62.222222222222236)"/></g><defs><path fill="#494949" d="M30 0v-248h33v221h125V0H30" id="n"/><path fill="#494949" d="M141-36C126-15 110 5 73 4 37 3 15-17 15-53c-1-64 63-63 125-63 3-35-9-54-41-54-24 1-41 7-42 31l-33-3c5-37 33-52 76-52 45 0 72 20 72 64v82c-1 20 7 32 28 27v20c-31 9-61-2-59-35zM48-53c0 20 12 33 32 33 41-3 63-29 60-74-43 2-92-5-92 41" id="o"/><path fill="#494949" d="M135-143c-3-34-86-38-87 0 15 53 115 12 119 90S17 21 10-45l28-5c4 36 97 45 98 0-10-56-113-15-118-90-4-57 82-63 122-42 12 7 21 19 24 35" id="p"/><path fill="#494949" d="M59-47c-2 24 18 29 38 22v24C64 9 27 4 27-40v-127H5v-23h24l9-43h21v43h35v23H59v120" id="q"/><g id="a"><use transform="matrix(0.08641975308641976,0,0,0.08641975308641976,0,0)" xlink:href="#n"/><use transform="matrix(0.08641975308641976,0,0,0.08641975308641976,17.283950617283953,0)" xlink:href="#o"/><use transform="matrix(0.08641975308641976,0,0,0.08641975308641976,34.567901234567906,0)" xlink:href="#p"/><use transform="matrix(0.08641975308641976,0,0,0.08641975308641976,50.12345679012346,0)" xlink:href="#q"/></g><path fill="#494949" d="M100-194c63 0 86 42 84 106H49c0 40 14 67 53 68 26 1 43-12 49-29l28 8c-11 28-37 45-77 45C44 4 14-33 15-96c1-61 26-98 85-98zm52 81c6-60-76-77-97-28-3 7-6 17-6 28h103" id="r"/><path fill="#494949" d="M117-194c89-4 53 116 60 194h-32v-121c0-31-8-49-39-48C34-167 62-67 57 0H25l-1-190h30c1 10-1 24 2 32 11-22 29-35 61-36" id="s"/><path fill="#494949" d="M33-154v-36h34v36H33zM33 0v-36h34V0H33" id="t"/><g id="b"><use transform="matrix(0.08641975308641976,0,0,0.08641975308641976,0,0)" xlink:href="#p"/><use transform="matrix(0.08641975308641976,0,0,0.08641975308641976,15.555555555555557,0)" xlink:href="#r"/><use transform="matrix(0.08641975308641976,0,0,0.08641975308641976,32.839506172839506,0)" xlink:href="#r"/><use transform="matrix(0.08641975308641976,0,0,0.08641975308641976,50.123456790123456,0)" xlink:href="#s"/><use transform="matrix(0.08641975308641976,0,0,0.08641975308641976,67.4074074074074,0)" xlink:href="#t"/></g><path fill="#494949" d="M101-251c82-7 93 87 43 132L82-64C71-53 59-42 53-27h129V0H18c2-99 128-94 128-182 0-28-16-43-45-43s-46 15-49 41l-32-3c6-41 34-60 81-64" id="u"/><use transform="matrix(0.08641975308641976,0,0,0.08641975308641976,0,0)" xlink:href="#u" id="c"/><path fill="#494949" d="M210-169c-67 3-38 105-44 169h-31v-121c0-29-5-50-35-48C34-165 62-65 56 0H25l-1-190h30c1 10-1 24 2 32 10-44 99-50 107 0 11-21 27-35 58-36 85-2 47 119 55 194h-31v-121c0-29-5-49-35-48" id="v"/><path fill="#494949" d="M24-231v-30h32v30H24zM24 0v-190h32V0H24" id="w"/><path fill="#494949" d="M84 4C-5 8 30-112 23-190h32v120c0 31 7 50 39 49 72-2 45-101 50-169h31l1 190h-30c-1-10 1-25-2-33-11 22-28 36-60 37" id="x"/><g id="d"><use transform="matrix(0.08641975308641976,0,0,0.08641975308641976,0,0)" xlink:href="#v"/><use transform="matrix(0.08641975308641976,0,0,0.08641975308641976,25.83950617283951,0)" xlink:href="#w"/><use transform="matrix(0.08641975308641976,0,0,0.08641975308641976,32.66666666666667,0)" xlink:href="#s"/><use transform="matrix(0.08641975308641976,0,0,0.08641975308641976,49.95061728395062,0)" xlink:href="#x"/><use transform="matrix(0.08641975308641976,0,0,0.08641975308641976,67.23456790123457,0)" xlink:href="#q"/><use transform="matrix(0.08641975308641976,0,0,0.08641975308641976,75.87654320987654,0)" xlink:href="#r"/><use transform="matrix(0.08641975308641976,0,0,0.08641975308641976,93.16049382716048,0)" xlink:href="#p"/></g><path fill="#494949" d="M177-190C167-65 218 103 67 71c-23-6-38-20-44-43l32-5c15 47 100 32 89-28v-30C133-14 115 1 83 1 29 1 15-40 15-95c0-56 16-97 71-98 29-1 48 16 59 35 1-10 0-23 2-32h30zM94-22c36 0 50-32 50-73 0-42-14-75-50-75-39 0-46 34-46 75s6 73 46 73" id="y"/><path fill="#494949" d="M100-194c62-1 85 37 85 99 1 63-27 99-86 99S16-35 15-95c0-66 28-99 85-99zM99-20c44 1 53-31 53-75 0-43-8-75-51-75s-53 32-53 75 10 74 51 75" id="z"/><g id="e"><use transform="matrix(0.08641975308641976,0,0,0.08641975308641976,0,0)" xlink:href="#o"/><use transform="matrix(0.08641975308641976,0,0,0.08641975308641976,17.283950617283953,0)" xlink:href="#y"/><use transform="matrix(0.08641975308641976,0,0,0.08641975308641976,34.567901234567906,0)" xlink:href="#z"/></g><path d="M30 0v-248h33v221h125V0H30" id="A"/><path d="M141-36C126-15 110 5 73 4 37 3 15-17 15-53c-1-64 63-63 125-63 3-35-9-54-41-54-24 1-41 7-42 31l-33-3c5-37 33-52 76-52 45 0 72 20 72 64v82c-1 20 7 32 28 27v20c-31 9-61-2-59-35zM48-53c0 20 12 33 32 33 41-3 63-29 60-74-43 2-92-5-92 41" id="B"/><path d="M115-194c55 1 70 41 70 98S169 2 115 4C84 4 66-9 55-30l1 105H24l-1-265h31l2 30c10-21 28-34 59-34zm-8 174c40 0 45-34 45-75s-6-73-45-74c-42 0-51 32-51 76 0 43 10 73 51 73" id="C"/><path d="M59-47c-2 24 18 29 38 22v24C64 9 27 4 27-40v-127H5v-23h24l9-43h21v43h35v23H59v120" id="D"/><path d="M100-194c62-1 85 37 85 99 1 63-27 99-86 99S16-35 15-95c0-66 28-99 85-99zM99-20c44 1 53-31 53-75 0-43-8-75-51-75s-53 32-53 75 10 74 51 75" id="E"/><g id="f"><use transform="matrix(0.05,0,0,0.05,0,0)" xlink:href="#A"/><use transform="matrix(0.05,0,0,0.05,10,0)" xlink:href="#B"/><use transform="matrix(0.05,0,0,0.05,20,0)" xlink:href="#C"/><use transform="matrix(0.05,0,0,0.05,30,0)" xlink:href="#D"/><use transform="matrix(0.05,0,0,0.05,35,0)" xlink:href="#E"/><use transform="matrix(0.05,0,0,0.05,45,0)" xlink:href="#C"/></g><path d="M101-251c82-7 93 87 43 132L82-64C71-53 59-42 53-27h129V0H18c2-99 128-94 128-182 0-28-16-43-45-43s-46 15-49 41l-32-3c6-41 34-60 81-64" id="F"/><path d="M101-251c68 0 85 55 85 127S166 4 100 4C33 4 14-52 14-124c0-73 17-127 87-127zm-1 229c47 0 54-49 54-102s-4-102-53-102c-51 0-55 48-55 102 0 53 5 102 54 102" id="G"/><path d="M110-160c48 1 74 30 74 79 0 53-28 85-80 85-65 0-83-55-86-122-5-90 50-162 133-122 14 7 22 21 27 39l-31 6c-5-40-67-38-82-6-9 19-15 44-15 74 11-20 30-34 60-33zm-7 138c34 0 49-23 49-58s-16-56-50-56c-29 0-50 16-49 49 1 36 15 65 50 65" id="H"/><path d="M33 0v-38h34V0H33" id="I"/><path d="M27 0v-27h64v-190l-56 39v-29l58-41h29v221h61V0H27" id="J"/><path d="M99-251c64 0 84 50 84 122C183-37 130 33 47-8c-14-7-20-23-25-40l30-5c6 39 69 39 84 7 9-19 16-44 16-74-10 22-31 35-62 35-49 0-73-33-73-83 0-54 28-83 82-83zm-1 141c31-1 51-18 51-49 0-36-14-67-51-67-34 0-49 23-49 58 0 34 15 58 49 58" id="K"/><path d="M126-127c33 6 58 20 58 59 0 88-139 92-164 29-3-8-5-16-6-25l32-3c6 27 21 44 54 44 32 0 52-15 52-46 0-38-36-46-79-43v-28c39 1 72-4 72-42 0-27-17-43-46-43-28 0-47 15-49 41l-32-3c6-42 35-63 81-64 48-1 79 21 79 65 0 36-21 52-52 59" id="L"/><g id="g"><use transform="matrix(0.05,0,0,0.05,0,0)" xlink:href="#F"/><use transform="matrix(0.05,0,0,0.05,10,0)" xlink:href="#G"/><use transform="matrix(0.05,0,0,0.05,20,0)" xlink:href="#H"/><use transform="matrix(0.05,0,0,0.05,30,0)" xlink:href="#I"/><use transform="matrix(0.05,0,0,0.05,35,0)" xlink:href="#J"/><use transform="matrix(0.05,0,0,0.05,45,0)" xlink:href="#H"/><use transform="matrix(0.05,0,0,0.05,55,0)" xlink:href="#K"/><use transform="matrix(0.05,0,0,0.05,65,0)" xlink:href="#I"/><use transform="matrix(0.05,0,0,0.05,70,0)" xlink:href="#F"/><use transform="matrix(0.05,0,0,0.05,80,0)" xlink:href="#L"/><use transform="matrix(0.05,0,0,0.05,90,0)" xlink:href="#I"/><use transform="matrix(0.05,0,0,0.05,95,0)" xlink:href="#F"/><use transform="matrix(0.05,0,0,0.05,105,0)" xlink:href="#L"/></g><path d="M54-142c48-35 137-8 131 61C196 18 31 33 14-55l32-4c7 23 22 37 52 37 35-1 51-22 54-58 4-55-73-65-99-34H22l8-134h141v27H59" id="M"/><g id="h"><use transform="matrix(0.05,0,0,0.05,0,0)" xlink:href="#F"/><use transform="matrix(0.05,0,0,0.05,10,0)" xlink:href="#G"/><use transform="matrix(0.05,0,0,0.05,20,0)" xlink:href="#H"/><use transform="matrix(0.05,0,0,0.05,30,0)" xlink:href="#I"/><use transform="matrix(0.05,0,0,0.05,35,0)" xlink:href="#J"/><use transform="matrix(0.05,0,0,0.05,45,0)" xlink:href="#H"/><use transform="matrix(0.05,0,0,0.05,55,0)" xlink:href="#K"/><use transform="matrix(0.05,0,0,0.05,65,0)" xlink:href="#I"/><use transform="matrix(0.05,0,0,0.05,70,0)" xlink:href="#F"/><use transform="matrix(0.05,0,0,0.05,80,0)" xlink:href="#M"/><use transform="matrix(0.05,0,0,0.05,90,0)" xlink:href="#I"/><use transform="matrix(0.05,0,0,0.05,95,0)" xlink:href="#F"/><use transform="matrix(0.05,0,0,0.05,105,0)" xlink:href="#L"/></g><path d="M64 0c3-98 48-159 88-221H18v-27h164v26C143-157 98-101 97 0H64" id="N"/><g id="i"><use transform="matrix(0.05,0,0,0.05,0,0)" xlink:href="#F"/><use transform="matrix(0.05,0,0,0.05,10,0)" xlink:href="#G"/><use transform="matrix(0.05,0,0,0.05,20,0)" xlink:href="#H"/><use transform="matrix(0.05,0,0,0.05,30,0)" xlink:href="#I"/><use transform="matrix(0.05,0,0,0.05,35,0)" xlink:href="#J"/><use transform="matrix(0.05,0,0,0.05,45,0)" xlink:href="#N"/><use transform="matrix(0.05,0,0,0.05,55,0)" xlink:href="#K"/><use transform="matrix(0.05,0,0,0.05,65,0)" xlink:href="#I"/><use transform="matrix(0.05,0,0,0.05,70,0)" xlink:href="#F"/><use transform="matrix(0.05,0,0,0.05,80,0)" xlink:href="#L"/><use transform="matrix(0.05,0,0,0.05,90,0)" xlink:href="#I"/><use transform="matrix(0.05,0,0,0.05,95,0)" xlink:href="#F"/><use transform="matrix(0.05,0,0,0.05,105,0)" xlink:href="#L"/></g><path d="M155-56V0h-30v-56H8v-25l114-167h33v167h35v25h-35zm-30-156c-27 46-58 90-88 131h88v-131" id="O"/><g id="j"><use transform="matrix(0.05,0,0,0.05,0,0)" xlink:href="#F"/><use transform="matrix(0.05,0,0,0.05,10,0)" xlink:href="#G"/><use transform="matrix(0.05,0,0,0.05,20,0)" xlink:href="#H"/><use transform="matrix(0.05,0,0,0.05,30,0)" xlink:href="#I"/><use transform="matrix(0.05,0,0,0.05,35,0)" xlink:href="#J"/><use transform="matrix(0.05,0,0,0.05,45,0)" xlink:href="#O"/><use transform="matrix(0.05,0,0,0.05,55,0)" xlink:href="#K"/><use transform="matrix(0.05,0,0,0.05,65,0)" xlink:href="#I"/><use transform="matrix(0.05,0,0,0.05,70,0)" xlink:href="#F"/><use transform="matrix(0.05,0,0,0.05,80,0)" xlink:href="#L"/><use transform="matrix(0.05,0,0,0.05,90,0)" xlink:href="#I"/><use transform="matrix(0.05,0,0,0.05,95,0)" xlink:href="#F"/><use transform="matrix(0.05,0,0,0.05,105,0)" xlink:href="#L"/></g><path fill="#494949" d="M110-160c48 1 74 30 74 79 0 53-28 85-80 85-65 0-83-55-86-122-5-90 50-162 133-122 14 7 22 21 27 39l-31 6c-5-40-67-38-82-6-9 19-15 44-15 74 11-20 30-34 60-33zm-7 138c34 0 49-23 49-58s-16-56-50-56c-29 0-50 16-49 49 1 36 15 65 50 65" id="P"/><use transform="matrix(0.08641975308641976,0,0,0.08641975308641976,0,0)" xlink:href="#P" id="k"/><path fill="#494949" d="M99-251c64 0 84 50 84 122C183-37 130 33 47-8c-14-7-20-23-25-40l30-5c6 39 69 39 84 7 9-19 16-44 16-74-10 22-31 35-62 35-49 0-73-33-73-83 0-54 28-83 82-83zm-1 141c31-1 51-18 51-49 0-36-14-67-51-67-34 0-49 23-49 58 0 34 15 58 49 58" id="Q"/><use transform="matrix(0.08641975308641976,0,0,0.08641975308641976,0,0)" xlink:href="#Q" id="l"/><path fill="#494949" d="M27 0v-27h64v-190l-56 39v-29l58-41h29v221h61V0H27" id="R"/><g id="m"><use transform="matrix(0.08641975308641976,0,0,0.08641975308641976,0,0)" xlink:href="#R"/><use transform="matrix(0.08641975308641976,0,0,0.08641975308641976,17.283950617283953,0)" xlink:href="#P"/></g></defs></g></svg>