<svg xmlns="http://www.w3.org/2000/svg" xmlns:xlink="http://www.w3.org/1999/xlink" xmlns:lucid="lucid" width="420" height="380"><g transform="translate(-380 -220)" lucid:page-tab-id="0_0"><path d="M0 0h1870.4v1323.2H0z" fill="#fff"/><path d="M540 310c0 38.66-31.34 70-70 70s-70-31.34-70-70 31.34-70 70-70 70 31.34 70 70z" stroke="#000" stroke-width="2" fill="#fff"/><use xlink:href="#a" transform="matrix(1,0,0,1,405,245) translate(36.888888888888886 70.08333333333334)"/><path d="M780 310c0 38.66-31.34 70-70 70s-70-31.34-70-70 31.34-70 70-70 70 31.34 70 70z" stroke="#000" stroke-width="2" fill="#fff"/><use xlink:href="#a" transform="matrix(1,0,0,1,645,245) translate(36.888888888888886 70.08333333333334)"/><path d="M780 510c0 38.66-31.34 70-70 70s-70-31.34-70-70 31.34-70 70-70 70 31.34 70 70z" stroke="#000" stroke-width="2" fill="#fff"/><use xlink:href="#a" transform="matrix(1,0,0,1,645,445) translate(36.888888888888886 70.08333333333334)"/><path d="M540 510c0 38.66-31.34 70-70 70s-70-31.34-70-70 31.34-70 70-70 70 31.34 70 70z" stroke="#000" stroke-width="2" fill="#fff"/><use xlink:href="#a" transform="matrix(1,0,0,1,405,445) translate(36.888888888888886 70.08333333333334)"/><path d="M530.9 374.48l116.5 72.44" stroke="#000" stroke-width="2" fill="none"/><path d="M517.95 366.4l14.56 3.6-4.9 7.88zM660.38 455l-14.56-3.6 4.9-7.88z" stroke="#000" stroke-width="2"/><path d="M641.43 367.37l-110.9 77.47" stroke="#000" stroke-width="2" fill="none"/><path d="M653.95 358.63l-9.04 11.97-5.3-7.6zM518.03 453.58l9.04-11.97 5.3 7.6z" stroke="#000" stroke-width="2"/><path d="M470 399.5v21" stroke="#000" stroke-width="2" fill="none"/><path d="M470 384.24l4.64 14.26h-9.28zM470 435.76l-4.64-14.26h9.28z" stroke="#000" stroke-width="2"/><path d="M710 420.5v-21" stroke="#000" stroke-width="2" fill="none"/><path d="M710 435.76l-4.64-14.26h9.28zM710 384.24l4.64 14.26h-9.28z" stroke="#000" stroke-width="2"/><path d="M559.5 310h61" stroke="#000" stroke-width="2" fill="none"/><path d="M544.24 310l14.26-4.64v9.28zM635.76 310l-14.26 4.64v-9.28z" stroke="#000" stroke-width="2"/><path d="M559.5 510h61" stroke="#000" stroke-width="2" fill="none"/><path d="M544.24 510l14.26-4.64v9.28zM635.76 510l-14.26 4.64v-9.28z" stroke="#000" stroke-width="2"/><defs><path d="M30-248c87 1 191-15 191 75 0 78-77 80-158 76V0H30v-248zm33 125c57 0 124 11 124-50 0-59-68-47-124-48v98" id="b"/><path d="M100-194c63 0 86 42 84 106H49c0 40 14 67 53 68 26 1 43-12 49-29l28 8c-11 28-37 45-77 45C44 4 14-33 15-96c1-61 26-98 85-98zm52 81c6-60-76-77-97-28-3 7-6 17-6 28h103" id="c"/><path d="M114-163C36-179 61-72 57 0H25l-1-190h30c1 12-1 29 2 39 6-27 23-49 58-41v29" id="d"/><g id="a"><use transform="matrix(0.07407407407407408,0,0,0.07407407407407408,0,0)" xlink:href="#b"/><use transform="matrix(0.07407407407407408,0,0,0.07407407407407408,17.77777777777778,0)" xlink:href="#c"/><use transform="matrix(0.07407407407407408,0,0,0.07407407407407408,32.592592592592595,0)" xlink:href="#c"/><use transform="matrix(0.07407407407407408,0,0,0.07407407407407408,47.40740740740741,0)" xlink:href="#d"/></g></defs></g></svg>