<svg xmlns="http://www.w3.org/2000/svg" xmlns:xlink="http://www.w3.org/1999/xlink" xmlns:lucid="lucid" width="640" height="460"><g transform="translate(-260 -200)" lucid:page-tab-id="0_0"><path d="M0 0h1870.4v1323.2H0z" fill="#fff"/><path d="M420 290c0 38.66-31.34 70-70 70s-70-31.34-70-70 31.34-70 70-70 70 31.34 70 70z" stroke="#000" stroke-width="2" fill="#fff"/><use xlink:href="#a" transform="matrix(1,0,0,1,285,225) translate(36.888888888888886 70.08333333333334)"/><path d="M880 290c0 38.66-31.34 70-70 70s-70-31.34-70-70 31.34-70 70-70 70 31.34 70 70z" stroke="#000" stroke-width="2" fill="#fff"/><use xlink:href="#a" transform="matrix(1,0,0,1,745,225) translate(36.888888888888886 70.08333333333334)"/><path d="M880 570c0 38.66-31.34 70-70 70s-70-31.34-70-70 31.34-70 70-70 70 31.34 70 70z" stroke="#000" stroke-width="2" fill="#fff"/><use xlink:href="#a" transform="matrix(1,0,0,1,745,505) translate(36.888888888888886 70.08333333333334)"/><path d="M420 570c0 38.66-31.34 70-70 70s-70-31.34-70-70 31.34-70 70-70 70 31.34 70 70z" stroke="#000" stroke-width="2" fill="#fff"/><use xlink:href="#a" transform="matrix(1,0,0,1,285,505) translate(36.888888888888886 70.08333333333334)"/><path d="M350 379.5v101" stroke="#000" stroke-width="2" fill="none"/><path d="M350 364.24l4.64 14.26h-9.28zM350 495.76l-4.64-14.26h9.28z" stroke="#000" stroke-width="2"/><path d="M810 480.5v-101" stroke="#000" stroke-width="2" fill="none"/><path d="M810 495.76l-4.64-14.26h9.28zM810 364.24l4.64 14.26h-9.28z" stroke="#000" stroke-width="2"/><path d="M439.5 290h281" stroke="#000" stroke-width="2" fill="none"/><path d="M424.24 290l14.26-4.64v9.28zM735.76 290l-14.26 4.64v-9.28z" stroke="#000" stroke-width="2"/><path d="M439.5 570h281" stroke="#000" stroke-width="2" fill="none"/><path d="M424.24 570l14.26-4.64v9.28zM735.76 570l-14.26 4.64v-9.28z" stroke="#000" stroke-width="2"/><path d="M592.17 365.28c3.57 0 6.35 2.87 6.35 6.42l24.97 96v5.86c0 3.56-2.88 6.43-6.36 6.43h-74.3c-3.47 0-6.34-2.88-6.34-6.44v-5.27l28-96.6c0-3.55 2.8-6.42 6.36-6.42z" fill="#4f4f4f"/><path d="M617.14 360c3.48 0 6.35 2.87 6.35 6.42v101.8c0 3.55-2.88 6.42-6.36 6.42h-74.3c-3.47 0-6.34-2.87-6.34-6.42v-101.8c0-3.55 2.87-6.42 6.35-6.42z" fill="#7d7c7c"/><path d="M609.9 408.5H550v-7.08h59.9zm0-11.97H550v-7.07h59.9zm0-12.53H550v-7.07h59.9z" fill="#fff"/><use xlink:href="#b" transform="matrix(1,0,0,1,536.5,480) translate(4.600000000000001 14.4)"/><use xlink:href="#c" transform="matrix(1,0,0,1,536.5,480) translate(18.549999999999997 36)"/><path d="M520.83 358.42l-101.6-16.13" stroke="#000" stroke-width="2" fill="none"/><path d="M535.9 360.8l-14.8 2.35 1.45-9.15zM404.16 339.9l14.82-2.35-1.45 9.16z" stroke="#000" stroke-width="2"/><path d="M640.4 358.38l92.2-24.9" stroke="#000" stroke-width="2" fill="none"/><path d="M625.66 362.36l12.56-8.2 2.42 8.96zM747.33 329.5l-12.56 8.2-2.42-8.95z" stroke="#000" stroke-width="2"/><path d="M640.37 480.9l93.78 42.04" stroke="#000" stroke-width="2" fill="none"/><path d="M626.44 474.66l14.92 1.6-3.8 8.46zM748.08 529.2l-14.92-1.62 3.8-8.46z" stroke="#000" stroke-width="2"/><path d="M520.83 484.2l-96.74 36.63" stroke="#000" stroke-width="2" fill="none"/><path d="M535.1 478.8l-11.7 9.4-3.28-8.68zM409.8 526.24l11.7-9.4 3.3 8.68z" stroke="#000" stroke-width="2"/><defs><path d="M30-248c87 1 191-15 191 75 0 78-77 80-158 76V0H30v-248zm33 125c57 0 124 11 124-50 0-59-68-47-124-48v98" id="d"/><path d="M100-194c63 0 86 42 84 106H49c0 40 14 67 53 68 26 1 43-12 49-29l28 8c-11 28-37 45-77 45C44 4 14-33 15-96c1-61 26-98 85-98zm52 81c6-60-76-77-97-28-3 7-6 17-6 28h103" id="e"/><path d="M114-163C36-179 61-72 57 0H25l-1-190h30c1 12-1 29 2 39 6-27 23-49 58-41v29" id="f"/><g id="a"><use transform="matrix(0.07407407407407408,0,0,0.07407407407407408,0,0)" xlink:href="#d"/><use transform="matrix(0.07407407407407408,0,0,0.07407407407407408,17.77777777777778,0)" xlink:href="#e"/><use transform="matrix(0.07407407407407408,0,0,0.07407407407407408,32.592592592592595,0)" xlink:href="#e"/><use transform="matrix(0.07407407407407408,0,0,0.07407407407407408,47.40740740740741,0)" xlink:href="#f"/></g><path d="M59-47c-2 24 18 29 38 22v24C64 9 27 4 27-40v-127H5v-23h24l9-43h21v43h35v23H59v120" id="g"/><path d="M141-36C126-15 110 5 73 4 37 3 15-17 15-53c-1-64 63-63 125-63 3-35-9-54-41-54-24 1-41 7-42 31l-33-3c5-37 33-52 76-52 45 0 72 20 72 64v82c-1 20 7 32 28 27v20c-31 9-61-2-59-35zM48-53c0 20 12 33 32 33 41-3 63-29 60-74-43 2-92-5-92 41" id="h"/><path d="M85-194c31 0 48 13 60 33l-1-100h32l1 261h-30c-2-10 0-23-3-31C134-8 116 4 85 4 32 4 16-35 15-94c0-66 23-100 70-100zm9 24c-40 0-46 34-46 75 0 40 6 74 45 74 42 0 51-32 51-76 0-42-9-74-50-73" id="i"/><path d="M24-231v-30h32v30H24zM24 0v-190h32V0H24" id="j"/><path d="M100-194c62-1 85 37 85 99 1 63-27 99-86 99S16-35 15-95c0-66 28-99 85-99zM99-20c44 1 53-31 53-75 0-43-8-75-51-75s-53 32-53 75 10 74 51 75" id="k"/><path d="M117-194c89-4 53 116 60 194h-32v-121c0-31-8-49-39-48C34-167 62-67 57 0H25l-1-190h30c1 10-1 24 2 32 11-22 29-35 61-36" id="l"/><path d="M24 0v-261h32V0H24" id="m"/><g id="b"><use transform="matrix(0.05,0,0,0.05,0,0)" xlink:href="#g"/><use transform="matrix(0.05,0,0,0.05,5,0)" xlink:href="#f"/><use transform="matrix(0.05,0,0,0.05,10.95,0)" xlink:href="#h"/><use transform="matrix(0.05,0,0,0.05,20.95,0)" xlink:href="#i"/><use transform="matrix(0.05,0,0,0.05,30.950000000000003,0)" xlink:href="#j"/><use transform="matrix(0.05,0,0,0.05,34.9,0)" xlink:href="#g"/><use transform="matrix(0.05,0,0,0.05,39.9,0)" xlink:href="#j"/><use transform="matrix(0.05,0,0,0.05,43.85,0)" xlink:href="#k"/><use transform="matrix(0.05,0,0,0.05,53.85,0)" xlink:href="#l"/><use transform="matrix(0.05,0,0,0.05,63.85,0)" xlink:href="#h"/><use transform="matrix(0.05,0,0,0.05,73.85,0)" xlink:href="#m"/></g><path d="M135-143c-3-34-86-38-87 0 15 53 115 12 119 90S17 21 10-45l28-5c4 36 97 45 98 0-10-56-113-15-118-90-4-57 82-63 122-42 12 7 21 19 24 35" id="n"/><path d="M108 0H70L1-190h34L89-25l56-165h34" id="o"/><g id="c"><use transform="matrix(0.05,0,0,0.05,0,0)" xlink:href="#n"/><use transform="matrix(0.05,0,0,0.05,9,0)" xlink:href="#e"/><use transform="matrix(0.05,0,0,0.05,19,0)" xlink:href="#f"/><use transform="matrix(0.05,0,0,0.05,24.95,0)" xlink:href="#o"/><use transform="matrix(0.05,0,0,0.05,33.95,0)" xlink:href="#e"/><use transform="matrix(0.05,0,0,0.05,43.95,0)" xlink:href="#f"/></g></defs></g></svg>